<svg xmlns="http://www.w3.org/2000/svg" viewBox="0 0 120.66 137.19"><defs><style>.cls-1{fill:#7f3996;}.cls-2{fill:#fff;}</style></defs><g id="Calque_2" data-name="Calque 2"><g id="Calque_1-2" data-name="Calque 1"><polygon id="Forme_3" data-name="Forme 3" class="cls-1" points="120.66 120.66 0 137.19 0 16.53 120.66 0 120.66 120.66"/><path class="cls-2" d="M37.52,84.13c-2.5,0-5.44-1.52-7.84-3.68v3.19h-8V36.49h8V50.6a11.63,11.63,0,0,1,7.59-2.69c7.65,0,15.15,7.06,15.15,17.64C52.42,77.46,45.11,84.13,37.52,84.13Zm-.89-27.69a8.84,8.84,0,0,0-7,3.72V71.83a8.91,8.91,0,0,0,7,3.57c4.66,0,7.65-4.16,7.65-9.36S41.29,56.44,36.63,56.44Z"/><path class="cls-2" d="M60,84.08c-2.06,0-3.77-2-3.77-4.51S58,75.06,60,75.06s3.87,2,3.87,4.51S62.12,84.08,60,84.08Z"/><path class="cls-2" d="M82.46,47.91c2.4,0,5.83.83,7.84,3.23V36.49h7.94V83.64H91l-.58-2.75a12.19,12.19,0,0,1-7.75,3.24c-7.64,0-15.19-7-15.19-17.6C67.46,54.72,74.81,47.91,82.46,47.91Zm.73,27.54a9.43,9.43,0,0,0,7.11-3.87V60.11a9.4,9.4,0,0,0-7.11-3.67c-4.56,0-7.55,4.46-7.55,9.6S78.63,75.45,83.19,75.45Z"/><path class="cls-2" d="M12,96.1V95l4.58-2.6v1.47l-2.95,1.71c1,.58,2,1.17,2.95,1.76v1.48Z"/><path class="cls-2" d="M25.14,98.66l-1.05-3.37c-.31,1.1-.63,2.23-1,3.37H22.2l-1.7-5.28V93.2h1.31l.93,3c.25-1,.56-2,.84-3h1.09l.94,3.08c.31-1,.67-2,1-3.08h1.18v.18L26,98.66Z"/><path class="cls-2" d="M29.5,96.42a1.44,1.44,0,0,0,1.33,1.09,2.61,2.61,0,0,0,1.6-.56l.43,1a2.93,2.93,0,0,1-2.08.75,2.48,2.48,0,0,1-2.58-2.8c0-1.89,1.08-2.84,2.54-2.84,1.65,0,2.47,1.06,2.46,3.33Zm1.19-2.13a1.2,1.2,0,0,0-1.11.94h2.29A1.1,1.1,0,0,0,30.69,94.29Z"/><path class="cls-2" d="M34,98.66V93.2H36.5a1.51,1.51,0,0,1,1.65,1.59,1.38,1.38,0,0,1-.51,1.1,1.57,1.57,0,0,1-1.06,2.77Zm1.28-4.27v1h1c.52,0,.62-.26.62-.47s-.06-.49-.56-.49Zm0,2.12v.95h1c.53,0,.61-.25.61-.45s-.07-.5-.54-.5Z"/><path class="cls-2" d="M42.2,98.66V93.2h2.32a2.58,2.58,0,0,1,2.53,2.72,2.61,2.61,0,0,1-2.74,2.74Zm1.31-4.26v3h.71A1.51,1.51,0,0,0,45.84,96a1.43,1.43,0,0,0-1.6-1.55Z"/><path class="cls-2" d="M48.74,96.42a1.46,1.46,0,0,0,1.34,1.09,2.61,2.61,0,0,0,1.6-.56l.43,1a2.93,2.93,0,0,1-2.08.75,2.49,2.49,0,0,1-2.59-2.8c0-1.89,1.09-2.84,2.55-2.84,1.65,0,2.47,1.06,2.45,3.33Zm1.2-2.13a1.2,1.2,0,0,0-1.11.94h2.29A1.1,1.1,0,0,0,49.94,94.29Z"/><path class="cls-2" d="M55.3,98.67,53,93.37V93.2h1.32l1.5,3.61,1.46-3.61h1.28v.17l-2.2,5.3Z"/><path class="cls-2" d="M60.29,96.42a1.46,1.46,0,0,0,1.34,1.09,2.63,2.63,0,0,0,1.6-.56l.43,1a3,3,0,0,1-2.08.75A2.49,2.49,0,0,1,59,95.94c0-1.89,1.09-2.84,2.55-2.84,1.65,0,2.47,1.06,2.45,3.33Zm1.2-2.13a1.2,1.2,0,0,0-1.11.94h2.28A1.08,1.08,0,0,0,61.49,94.29Z"/><path class="cls-2" d="M64.7,93.2H66v4.17h2.9v1.29H64.7Z"/><path class="cls-2" d="M69.52,95.93A2.69,2.69,0,0,1,72.27,93,2.75,2.75,0,0,1,75,96a2.75,2.75,0,1,1-5.5,0Zm1.23,0a1.45,1.45,0,0,0,1.52,1.56A1.43,1.43,0,0,0,73.77,96a1.51,1.51,0,1,0-3,0Z"/><path class="cls-2" d="M76.91,97.15v1.51H75.63V93.2H78a1.8,1.8,0,0,1,1.87,2,1.86,1.86,0,0,1-1.9,2Zm0-2.66v1.44h.85a.78.78,0,0,0,.83-.73.69.69,0,0,0-.76-.71Z"/><path class="cls-2" d="M81.73,97.15v1.51H80.45V93.2h2.32a1.8,1.8,0,0,1,1.87,2,1.85,1.85,0,0,1-1.89,2Zm0-2.66v1.44h.85a.78.78,0,0,0,.82-.73.69.69,0,0,0-.76-.71Z"/><path class="cls-2" d="M86.41,96.42a1.45,1.45,0,0,0,1.34,1.09,2.65,2.65,0,0,0,1.6-.56l.42,1a2.93,2.93,0,0,1-2.08.75,2.49,2.49,0,0,1-2.58-2.8c0-1.89,1.09-2.84,2.55-2.84,1.64,0,2.47,1.06,2.45,3.33Zm1.19-2.13a1.19,1.19,0,0,0-1.1.94h2.28A1.09,1.09,0,0,0,87.6,94.29Z"/><path class="cls-2" d="M92.57,96.65h-.4v2H90.89V93.2h2.69a1.57,1.57,0,0,1,1.68,1.72A1.75,1.75,0,0,1,94,96.52l1.52,2v.19H94.14Zm-.4-2.26v1h1.15c.51,0,.67-.31.67-.54s-.09-.5-.6-.5Z"/><path class="cls-2" d="M100,99.21H98.85l3.29-7.36h1.12Z"/><path class="cls-2" d="M103.74,98.81V97.33l2.94-1.76-2.94-1.71V92.39l4.57,2.6V96.1Z"/></g></g></svg>