<svg xmlns="http://www.w3.org/2000/svg" xmlns:xlink="http://www.w3.org/1999/xlink" viewBox="0 0 122 118.81"><defs><style>.cls-1{fill:none;}.cls-2{clip-path:url(#clip-path);}.cls-3{fill:#300;}.cls-4{fill:#ff9a00;}</style><clipPath id="clip-path"><rect class="cls-1" width="122" height="118.81"/></clipPath></defs><g id="Calque_2" data-name="Calque 2"><g id="Calque_1-2" data-name="Calque 1"><g class="cls-2"><path class="cls-3" d="M21.6,0h78.8A21.58,21.58,0,0,1,122,21.58V97.23a21.58,21.58,0,0,1-21.6,21.58H21.6A21.58,21.58,0,0,1,0,97.23V21.58A21.58,21.58,0,0,1,21.6,0Z"/><path class="cls-4" d="M59.12,71.28H40.21L36.35,83.22a.9.9,0,0,1-1,.71H25.82c-.56,0-.71-.31-.56-.92L41.63,36c.15-.51.31-1.07.51-1.68a18,18,0,0,0,.31-3.3.5.5,0,0,1,.4-.56H56c.4,0,.61.15.66.41L75.23,83.11c.16.56,0,.82-.51.82H64.1a.77.77,0,0,1-.81-.56ZM43.16,61H56.07c-.31-1.07-.71-2.34-1.17-3.66S54,54.48,53.53,53s-1-3.1-1.48-4.68-1-3-1.37-4.51-.76-2.75-1.12-4h-.1a63.16,63.16,0,0,1-1.73,6.54c-.76,2.44-1.52,5-2.34,7.52S43.92,58.84,43.16,61Z"/><path class="cls-4" d="M86.32,39.09a6.25,6.25,0,0,1-4.53-1.77,6.6,6.6,0,0,1-1.73-4.67,6,6,0,0,1,1.83-4.52,6.52,6.52,0,0,1,4.53-1.78A6.08,6.08,0,0,1,91,28.13a6.4,6.4,0,0,1,1.68,4.52,6.43,6.43,0,0,1-1.78,4.67A5.94,5.94,0,0,1,86.32,39.09Zm-5.7,44.07V44.07c0-.51.2-.71.66-.71H91.35c.46,0,.66.25.66.71V83.16c0,.56-.2.82-.66.82h-10A.72.72,0,0,1,80.62,83.16Z"/></g></g></g></svg>