<svg xmlns="http://www.w3.org/2000/svg" viewBox="0 0 64 80" x="0px" y="0px"><g data-name="Coding"><path d="M61,46H59V15a5.006,5.006,0,0,0-5-5H10a5.006,5.006,0,0,0-5,5V46H3a1,1,0,0,0-1,1v4a3,3,0,0,0,3,3H59a3,3,0,0,0,3-3V47A1,1,0,0,0,61,46ZM7,15a3,3,0,0,1,3-3H54a3,3,0,0,1,3,3V46H7ZM60,51a1,1,0,0,1-1,1H5a1,1,0,0,1-1-1V48H60Z"/><rect x="28" y="49" width="8" height="2"/><path d="M25.293,24.707l1.414-1.414L24.414,21l2.293-2.293-1.414-1.414-3,3a1,1,0,0,0,0,1.414Z"/><path d="M38.707,24.707l3-3a1,1,0,0,0,0-1.414l-3-3-1.414,1.414L39.586,21l-2.293,2.293Z"/><rect x="26.615" y="20" width="10.77" height="2.001" transform="translate(0.616 42.909) rotate(-68.193)"/><rect x="24" y="28" width="6" height="2"/><rect x="22" y="32" width="4" height="2"/><rect x="28" y="32" width="4" height="2"/><rect x="18" y="36" width="12" height="2"/><rect x="20" y="28" width="2" height="2"/><rect x="21" y="40" width="12" height="2"/><rect x="35" y="40" width="2" height="2"/><rect x="34" y="32" width="4" height="2"/><rect x="32" y="36" width="4" height="2"/><rect x="38" y="36" width="4" height="2"/><rect x="32" y="28" width="8" height="2"/><rect x="39" y="40" width="6" height="2"/></g><text x="0" y="79" fill="#000000" font-size="5px" font-weight="bold" font-family="'Helvetica Neue', Helvetica, Arial-Unicode, Arial, Sans-serif">Created by Komkrit Noenpoempisut</text><text x="0" y="84" fill="#000000" font-size="5px" font-weight="bold" font-family="'Helvetica Neue', Helvetica, Arial-Unicode, Arial, Sans-serif">from the Noun Project</text></svg>