<svg xmlns="http://www.w3.org/2000/svg" xmlns:xlink="http://www.w3.org/1999/xlink" viewBox="0 0 120.28 138.42"><defs><style>.cls-1{fill:none;}.cls-2{clip-path:url(#clip-path);}.cls-3{fill:#efe7f2;}</style><clipPath id="clip-path" transform="translate(-23.16 -5.13)"><rect class="cls-1" x="23.37" y="23.37" width="119.87" height="119.87" transform="translate(-32.48 61.54) rotate(-34.36)"/></clipPath></defs><g id="Calque_2" data-name="Calque 2"><g id="Calque_1-2" data-name="Calque 1"><g class="cls-2"><path class="cls-3" d="M119.15,64.83a39.15,39.15,0,0,1,4.27,20.92l19.68,3.7a59.55,59.55,0,0,0-7.51-35.86Z" transform="translate(-23.16 -5.13)"/><path class="cls-3" d="M109.86,113.33,121.24,130a59.53,59.53,0,0,0,20-30.68l-19.68-3.7A38.87,38.87,0,0,1,109.86,113.33Z" transform="translate(-23.16 -5.13)"/><path class="cls-3" d="M81,123.19l-3.76,20a59.56,59.56,0,0,0,35.86-7.51L101.64,119A39.35,39.35,0,0,1,81,123.19Z" transform="translate(-23.16 -5.13)"/><path class="cls-3" d="M53.47,109.73,36.63,121.24a59.59,59.59,0,0,0,30.69,20l3.76-20A39.66,39.66,0,0,1,53.47,109.73Z" transform="translate(-23.16 -5.13)"/><path class="cls-3" d="M43.52,80.92l-20-3.76A59.54,59.54,0,0,0,31,113l16.84-11.51A39.71,39.71,0,0,1,43.52,80.92Z" transform="translate(-23.16 -5.13)"/><path class="cls-3" d="M56.74,53.28,45.37,36.63a59.53,59.53,0,0,0-20,30.69l20,3.76A38.33,38.33,0,0,1,56.74,53.28Z" transform="translate(-23.16 -5.13)"/><path class="cls-3" d="M109.34,45.38l-6.1-1.06,4.67-24.42a12.47,12.47,0,0,0-24.52-4.61L78.82,39.64l-6.17-1.16a6.2,6.2,0,0,0-2.29,12.18l6.17,1.15L70.76,82.5A18.31,18.31,0,0,0,73,93.79l1.52,2.45L79.71,102l7-3.45L89,96.8a18,18,0,0,0,6.14-9.72l5.74-30.52L107,57.72a6.28,6.28,0,0,0,2.32-12.34ZM89.11,86a12.8,12.8,0,0,1-3.69,5.87l-.2.13-6.84-1.28-.14-.2a11.78,11.78,0,0,1-1.31-6.81l5.74-30.52,12.17,2.29Z" transform="translate(-23.16 -5.13)"/></g></g></g></svg>