<svg xmlns="http://www.w3.org/2000/svg" xmlns:xlink="http://www.w3.org/1999/xlink" viewBox="0 0 134.38 151.77"><defs><style>.cls-1{fill:none;}.cls-2{clip-path:url(#clip-path);}.cls-3{fill:#efe7f2;}</style><clipPath id="clip-path" transform="translate(-16.42 -6.09)"><rect class="cls-1" x="15.19" y="15.19" width="128" height="128" transform="translate(-18.79 24.95) rotate(-16.03)"/></clipPath></defs><g id="Calque_2" data-name="Calque 2"><g id="Calque_1-2" data-name="Calque 1"><g class="cls-2"><path class="cls-3" d="M29,35.89a2.15,2.15,0,0,1,2.64,1.46A2.12,2.12,0,0,1,30.19,40a2.13,2.13,0,0,1-2.46-3.08A2.17,2.17,0,0,1,29,35.89Z" transform="translate(-16.42 -6.09)"/><path class="cls-3" d="M37.21,33.54a2.12,2.12,0,0,1,1.62.18,2.08,2.08,0,0,1,1,1.28,2.13,2.13,0,0,1-.18,1.62,2.2,2.2,0,0,1-1.28,1,2.15,2.15,0,0,1-2.64-1.46,2.15,2.15,0,0,1,.19-1.63A2.1,2.1,0,0,1,37.21,33.54Z" transform="translate(-16.42 -6.09)"/><path class="cls-3" d="M45.41,31.18a2.12,2.12,0,0,1,2.64,1.46A2.13,2.13,0,0,1,45,35.1a2.2,2.2,0,0,1-1-1.28,2.15,2.15,0,0,1,1.46-2.64Z" transform="translate(-16.42 -6.09)"/><path class="cls-3" d="M37.4,157.78,101,139.52a2.13,2.13,0,0,0,1.46-2.64,1.93,1.93,0,0,0-.38-.74,2.07,2.07,0,0,0-.63-.55L19.58,90.3A2.1,2.1,0,0,0,18,90.12a2.13,2.13,0,0,0-1.47,2.64l18.26,63.56a2.17,2.17,0,0,0,1,1.28A2.13,2.13,0,0,0,37.4,157.78ZM22,96.52l72.82,40.32L38.27,153.09Z" transform="translate(-16.42 -6.09)"/><path class="cls-3" d="M67.12,132.13l-26.4-14.61a2.1,2.1,0,0,0-1.61-.18A2.13,2.13,0,0,0,37.64,120l5.89,20.5a2.08,2.08,0,0,0,1,1.28,2.12,2.12,0,0,0,1.62.19l20.5-5.9A2.12,2.12,0,0,0,68,135a2.15,2.15,0,0,0,.18-1.63,1.93,1.93,0,0,0-.38-.74A2.18,2.18,0,0,0,67.12,132.13ZM47,137.26l-3.88-13.52,17.39,9.63Z" transform="translate(-16.42 -6.09)"/><path class="cls-3" d="M125.76,18.17A8.2,8.2,0,0,0,122.56,7a7.26,7.26,0,0,0-1.37-.61,8.56,8.56,0,0,0-9.91,4.16l-1.94,3.6a10.65,10.65,0,0,0-13-6.53l-69.71,20a10.67,10.67,0,0,0-7.31,13.2L34.67,94.2,38.77,93,23.45,39.71a6.4,6.4,0,0,1,4.38-7.92l69.72-20a6.39,6.39,0,0,1,7.91,4.38l.94,3.26L92.65,44.24,77.58,48.57A23.47,23.47,0,1,0,63.37,86l2.36,8.2a2.17,2.17,0,0,0,1,1.28,2.12,2.12,0,0,0,1.62.18l45.11-13A2.15,2.15,0,0,0,114.94,80l-8-27.86,5.85-10.56,12.13,42.22L77.75,97.36a2.12,2.12,0,0,0-1.28,1,2.15,2.15,0,0,0-.18,1.63L81,116.4a2.17,2.17,0,0,0,1,1.28,2.13,2.13,0,0,0,1.62.18l47.16-13.55.59,2a6.39,6.39,0,0,1-4.39,7.92L94.2,123.7l1.18,4.11,32.8-9.43a10.67,10.67,0,0,0,7.31-13.2l-.59-2.05L149.25,99a2.13,2.13,0,0,0,1.46-2.64L146,80a2.15,2.15,0,0,0-2.64-1.46L129,82.63,115.7,36.31ZM115.2,12.33A3.92,3.92,0,0,1,119,10.11a4.1,4.1,0,0,1,1.49.38,4,4,0,0,1,1.22.93,3.75,3.75,0,0,1,.78,1.32,4,4,0,0,1,.21,1.52,4,4,0,0,1-.38,1.49l-.16.29-.13,0-.66,1.26-6.83-3.78ZM77.4,57.5a19.21,19.21,0,0,1-11.14,23L59.81,58.12l15.94-4.58A19.37,19.37,0,0,1,77.4,57.5Zm-22.28-.26,7,24.49A19.2,19.2,0,1,1,73.09,49.86l-16.5,4.75a2.09,2.09,0,0,0-1.28,1A2.14,2.14,0,0,0,55.12,57.24Zm55.13,21.9-41,11.78-1.77-6.15A23.46,23.46,0,0,0,81,54.44a20.33,20.33,0,0,0-1-2.1l9.8-2.82-3.37,6a2.12,2.12,0,0,0-.25,1.21L87,67.62a2.31,2.31,0,0,0,.21.81,2.38,2.38,0,0,0,.51.67,2.17,2.17,0,0,0,.72.42,2.14,2.14,0,0,0,.83.11l.86-.25,9.66-5a2.17,2.17,0,0,0,.89-.86l3.33-6.1ZM90.67,60.35l3.66,2-3.28,1.7Zm43.62,25.2.59,2a2.11,2.11,0,0,0,2.63,1.46A2.15,2.15,0,0,0,139,86.42l-.59-2,4.1-1.18L146,95.5,84.51,113.17,81,100.87l4.1-1.18.59,2a2.12,2.12,0,0,0,2.64,1.46,2.15,2.15,0,0,0,1.46-2.64l-.59-2,4.1-1.18.59,2a2.08,2.08,0,0,0,1,1.28,2.12,2.12,0,0,0,1.62.18A2.12,2.12,0,0,0,98,98.2l-.59-2,4.1-1.17.59,2a2.15,2.15,0,0,0,2.64,1.46,2.17,2.17,0,0,0,1.28-1,2.13,2.13,0,0,0,.18-1.62l-.59-2,4.1-1.18.59,2a2.17,2.17,0,0,0,1,1.28,2.13,2.13,0,0,0,3.08-2.46l-.59-2,4.1-1.18.59,2a2.13,2.13,0,0,0,2.64,1.46,2.09,2.09,0,0,0,1.28-1,2.15,2.15,0,0,0,.18-1.63l-.58-2,4.09-1.17.59,2a2.15,2.15,0,0,0,2.64,1.46,2.11,2.11,0,0,0,1.28-1,2.08,2.08,0,0,0,.18-1.62l-.58-2ZM98,59.56l-6.83-3.78,21.32-38.51,6.83,3.78Z" transform="translate(-16.42 -6.09)"/></g></g></g></svg>