<svg xmlns="http://www.w3.org/2000/svg" viewBox="0 0 60 60"><defs><style>.cls-1{fill:#fff;}</style></defs><g id="Calque_2" data-name="Calque 2"><g id="Calque_1-2" data-name="Calque 1"><g id="Calque_2-2" data-name="Calque 2"><g id="Calque_1-2-2" data-name="Calque 1-2"><path class="cls-1" d="M13,4h0a1,1,0,0,1,1,1h0a1,1,0,0,1-1,1h0a1,1,0,0,1-1-1h0A1,1,0,0,1,13,4Z"/><path class="cls-1" d="M17,4h0a1,1,0,0,1,1,1h0a1,1,0,0,1-1,1h0a1,1,0,0,1-1-1h0A1,1,0,0,1,17,4Z"/><path class="cls-1" d="M21,4h0a1,1,0,0,1,1,1h0a1,1,0,0,1-1,1h0a1,1,0,0,1-1-1h0A1,1,0,0,1,21,4Z"/><path class="cls-1" d="M1,60H32a1,1,0,0,0,1-1,1,1,0,0,0-.29-.71l-31-31a1,1,0,0,0-1.41,0h0A1,1,0,0,0,0,28V59A1,1,0,0,0,1,60ZM2,30.41,29.59,58H2Z"/><path class="cls-1" d="M17.71,52.29l-10-10a1,1,0,0,0-1.41,0h0A1,1,0,0,0,6,43V53a1,1,0,0,0,1,1H17a1,1,0,0,0,1-1A1,1,0,0,0,17.71,52.29ZM8,52V45.41L14.59,52Z"/><path class="cls-1" d="M58.88,8.54a3.84,3.84,0,0,0,0-5.43,3.31,3.31,0,0,0-.54-.45,4,4,0,0,0-5,.59L52,4.62A5,5,0,0,0,47,0H13A5,5,0,0,0,8,5V31h2V5a3,3,0,0,1,3-3H47a3,3,0,0,1,3,3V6.59L40.59,16H33.24A11,11,0,1,0,22,31v4a1,1,0,0,0,1,1H45a1,1,0,0,0,1-1V21.41l4-4V38H27a1,1,0,0,0-1,1v8a1,1,0,0,0,1,1H50v1a3,3,0,0,1-3,3H31v2H47a5,5,0,0,0,5-5V48h7a1,1,0,0,0,1-1V39a1,1,0,0,0-1-1H52V15.41Zm-4-4A1.83,1.83,0,1,1,57.63,7l-.11.11h-.06L57,7.59,54.41,5ZM32,20a9,9,0,0,1-8,8.94V18h7.77A9,9,0,0,1,32,20ZM22,17V28.94A9,9,0,1,1,31.05,16H23A1,1,0,0,0,22,17ZM44,34H24V31A11,11,0,0,0,34,19.08h0A10.18,10.18,0,0,0,33.81,18h4.78l-2.3,2.29a1,1,0,0,0-.27.51l-1,5A1,1,0,0,0,35.78,27h.42l5-1a1,1,0,0,0,.51-.27L44,23.41ZM37.61,23,39,24.39l-1.7.34ZM54,40v1a1,1,0,0,0,1,1h0a1,1,0,0,0,1-1V40h2v6H28V40h2v1a1,1,0,0,0,1,1h0a1,1,0,0,0,1-1V40h2v1a1,1,0,0,0,1,1h0a1,1,0,0,0,1-1V40h2v1a1,1,0,0,0,1,1h0a1,1,0,0,0,1-1V40h2v1a1,1,0,0,0,1,1h0a1,1,0,0,0,1-1V40h2v1a1,1,0,0,0,1,1h0a1,1,0,0,0,1-1V40h2v1a1,1,0,0,0,1,1h0a1,1,0,0,0,1-1V40ZM41,23.59,38.41,21,53,6.41,55.59,9Z"/></g></g></g></g></svg>