<svg xmlns="http://www.w3.org/2000/svg" xmlns:xlink="http://www.w3.org/1999/xlink" viewBox="0 0 193.38 161.46"><defs><style>.cls-1{fill:none;}.cls-2{clip-path:url(#clip-path);}.cls-3{fill:#7c3c8f;fill-opacity:0.12;}</style><clipPath id="clip-path" transform="translate(-1.51 -4.19)"><rect class="cls-1" x="35.25" y="-8.92" width="136" height="185" transform="translate(2.42 170.05) rotate(-79.6)"/></clipPath></defs><g id="Calque_2" data-name="Calque 2"><g id="Calque_1-2" data-name="Calque 1"><g class="cls-2"><path class="cls-3" d="M183.39,142.27l-6.06-1.11,17.29-94.25a15.29,15.29,0,0,0-12.38-18L48.8,4.45A15.28,15.28,0,0,0,30.85,16.87L13.56,111.12,7.49,110a2.92,2.92,0,0,0-3.59,2.49L1.67,124.65A9.1,9.1,0,0,0,9.1,135.44l163.76,30A9.1,9.1,0,0,0,183.64,158l2.23-12.16A2.93,2.93,0,0,0,183.39,142.27ZM36.92,18a9.09,9.09,0,0,1,10.77-7.45L181.13,35a9.1,9.1,0,0,1,7.42,10.79l-17.29,94.25L19.63,112.23ZM177.57,156.92A2.92,2.92,0,0,1,174,159.4l-163.77-30a2.92,2.92,0,0,1-2.47-3.6l1.67-9.12L179.24,147.8Z" transform="translate(-1.51 -4.19)"/><path class="cls-3" d="M105.9,137.48,81.64,133l-1.12,6.08,24.27,4.45Z" transform="translate(-1.51 -4.19)"/><path class="cls-3" d="M87,57.65l5-3.47L86.34,45.9l8.26-5.71-3.47-5L80.36,42.61a3,3,0,0,0-.78,4.25Z" transform="translate(-1.51 -4.19)"/><path class="cls-3" d="M127.64,65.11l10.78-7.45a3,3,0,0,0,.78-4.26l-7.43-10.79-5,3.48,5.69,8.27-8.26,5.71Z" transform="translate(-1.51 -4.19)"/><path class="cls-3" d="M115.66,34.37,97.9,62.62l5.22,3.29,17.76-28.25Z" transform="translate(-1.51 -4.19)"/><path class="cls-3" d="M99.42,70.3,81.22,67,80.11,73,98.3,76.38Z" transform="translate(-1.51 -4.19)"/><path class="cls-3" d="M85.06,80.24,72.92,78l-1.11,6.08,12.13,2.23Z" transform="translate(-1.51 -4.19)"/><path class="cls-3" d="M103.25,83.58,91.12,81.35,90,87.43l12.13,2.23Z" transform="translate(-1.51 -4.19)"/><path class="cls-3" d="M95,94.62,58.56,88,57.45,94l36.39,6.67Z" transform="translate(-1.51 -4.19)"/><path class="cls-3" d="M75.16,65.85l-6.07-1.11L68,70.82,74,71.93Z" transform="translate(-1.51 -4.19)"/><path class="cls-3" d="M101.82,108.45l-36.39-6.67-1.12,6.08,36.4,6.67Z" transform="translate(-1.51 -4.19)"/><path class="cls-3" d="M114,110.68l-6.06-1.11-1.12,6.08,6.07,1.11Z" transform="translate(-1.51 -4.19)"/><path class="cls-3" d="M121.45,86.91l-12.13-2.22-1.12,6.08L120.33,93Z" transform="translate(-1.51 -4.19)"/><path class="cls-3" d="M113.15,98,101,95.74l-1.11,6.08L112,104Z" transform="translate(-1.51 -4.19)"/><path class="cls-3" d="M131.35,101.3l-12.13-2.23-1.12,6.08,12.13,2.23Z" transform="translate(-1.51 -4.19)"/><path class="cls-3" d="M129.74,75.87l-24.26-4.46-1.11,6.08L128.63,82Z" transform="translate(-1.51 -4.19)"/><path class="cls-3" d="M138.22,115.13,120,111.79l-1.12,6.08,18.2,3.34Z" transform="translate(-1.51 -4.19)"/></g></g></g></svg>