<svg xmlns="http://www.w3.org/2000/svg" viewBox="0 0 37.75 47.6"><defs><style>.cls-1{fill:#9f3996;}</style></defs><g id="Calque_2" data-name="Calque 2"><g id="Calque_1-2" data-name="Calque 1"><rect class="cls-1" x="7.78" y="8.59" width="22.19" height="1.72"/><rect class="cls-1" x="7.78" y="16.61" width="22.19" height="1.72"/><path class="cls-1" d="M27.68,30.71,25.42,29.4c.25-.91.49-1.82.68-2.51.4-1.5-.5-2.4-2-2l-2.52.68-1.31-2.26c-.77-1.34-2-1.34-2.81,0l-1.31,2.26-2.52-.67c-1.49-.41-2.39.49-2,2,.19.69.43,1.6.68,2.51l-2.26,1.31c-1.34.77-1.34,2,0,2.81l2.26,1.31c-.25.91-.49,1.82-.68,2.52-.4,1.49.5,2.39,2,2l2.52-.68,1.31,2.26c.77,1.34,2,1.34,2.81,0l1.31-2.26,2.52.68c1.49.4,2.39-.5,2-2l-.68-2.52c.82-.48,1.64-.94,2.26-1.31C29,32.75,29,31.48,27.68,30.71Zm-8.8,5.86a4.46,4.46,0,1,1,4.45-4.45A4.46,4.46,0,0,1,18.88,36.57Z"/><path class="cls-1" d="M24.78,41.3a4.83,4.83,0,0,1-1.16-.16l-1.14-.31-.58,1A4.33,4.33,0,0,1,21,43l2.15,4.62,1.12-4L28,45.34l-2-4.27A3.48,3.48,0,0,1,24.78,41.3Z"/><polygon class="cls-1" points="18.83 44.67 18.93 44.67 18.88 44.57 18.83 44.67"/><path class="cls-1" d="M33.89,0h-30A3.87,3.87,0,0,0,0,3.87V40.81a3.86,3.86,0,0,0,3.87,3.86H7.23l1.2-2.58H3.87a1.28,1.28,0,0,1-1.29-1.28V3.87A1.29,1.29,0,0,1,3.87,2.58h30a1.29,1.29,0,0,1,1.29,1.29V40.81a1.28,1.28,0,0,1-1.29,1.28H29.32l1.2,2.58h3.37a3.86,3.86,0,0,0,3.86-3.86V3.87A3.86,3.86,0,0,0,33.89,0Z"/><path class="cls-1" d="M15.27,40.83l-1.14.31A4.76,4.76,0,0,1,13,41.3a3.48,3.48,0,0,1-1.22-.23l-2,4.27,3.73-1.69,1.12,4L16.77,43a4.33,4.33,0,0,1-.92-1.13Z"/></g></g></svg>