<?xml version="1.0" encoding="utf-8"?>
<!-- Generator: Adobe Illustrator 25.2.1, SVG Export Plug-In . SVG Version: 6.00 Build 0)  -->
<svg version="1.1" id="Calque_1" xmlns="http://www.w3.org/2000/svg" xmlns:xlink="http://www.w3.org/1999/xlink" x="0px" y="0px"
	 viewBox="0 0 100 125" style="enable-background:new 0 0 100 125;" xml:space="preserve">
<path d="M26,72.8c0.4,0.2,0.8,0.2,1.1,0.2c1.2,0,2.3-0.7,2.8-1.9l5.6-13.7h12.7l5.6,13.7c0.6,1.5,2.4,2.3,3.9,1.6
	c1.5-0.6,2.3-2.4,1.6-3.9L44.7,33c-0.5-1.1-1.6-1.9-2.8-1.9s-2.3,0.7-2.8,1.9L24.4,68.9C23.7,70.5,24.5,72.2,26,72.8z M41.9,42
	l3.9,9.5H38L41.9,42z"/>
<path d="M55,50.1l1.7,4.2h4.3l3.9,9.4c0.3,0.8,1.1,1.3,2,1.3c0.3,0,0.5-0.1,0.8-0.2c1.1-0.4,1.6-1.7,1.2-2.8L58.7,37.4
	c-0.3-0.8-1.1-1.3-2-1.3s-1.6,0.5-2,1.3l-3,5.9l2.3,5.6l2.7-5.1l2.6,6.3h-4.2C55.1,50.1,55,50.1,55,50.1z"/>
</svg>
