<svg xmlns="http://www.w3.org/2000/svg" xmlns:xlink="http://www.w3.org/1999/xlink" viewBox="0 0 336 336"><defs><style>.cls-1{fill:url(#Dégradé_sans_nom_3);}.cls-2{fill:#fff;}</style><linearGradient id="Dégradé_sans_nom_3" x1="-0.67" y1="335.32" x2="336.67" y2="0.68" gradientUnits="userSpaceOnUse"><stop offset="0.41" stop-color="#7f3996"/><stop offset="1"/></linearGradient></defs><g id="Calque_2" data-name="Calque 2"><g id="Calque_1-2" data-name="Calque 1"><g id="Calque_2-2" data-name="Calque 2"><g id="Calque_1-2-2" data-name="Calque 1-2"><path class="cls-1" d="M0,0V336H336V0ZM249,258H187V201H148v57H87V158.72l81-40.48,81,40.48Zm21-104.38-103-51.5L64,153.62v-24.7L167.13,77.49,225,106.39V87h23v31.06l22,10.86Z"/><polygon class="cls-2" points="270 128.92 270 153.62 167 102.12 64 153.62 64 128.92 167.13 77.49 225 106.39 225 87 248 87 248 118.06 270 128.92"/><polygon class="cls-2" points="249 158.72 249 258 187 258 187 201 148 201 148 258 87 258 87 158.72 168 118.24 249 158.72"/></g></g></g></g></svg>