<?xml version="1.0" encoding="utf-8"?>
<!-- Generator: Adobe Illustrator 25.2.1, SVG Export Plug-In . SVG Version: 6.00 Build 0)  -->
<svg version="1.1" id="svg4525" xmlns="http://www.w3.org/2000/svg" xmlns:xlink="http://www.w3.org/1999/xlink" x="0px" y="0px"
	 viewBox="0 0 2199 2500" style="enable-background:new 0 0 2199 2500;" xml:space="preserve">
<style type="text/css">
	.st0{fill:#D4B830;}
	.st1{opacity:0.986;fill:#EBEBEB;fill-opacity:0;enable-background:new    ;}
	.st2{opacity:0.986;fill:#FFFFFF;fill-opacity:0.9216;enable-background:new    ;}
	.st3{opacity:0.986;fill:#EBEBEB;fill-opacity:0.9216;enable-background:new    ;}
	.st4{fill:#FDD83C;}
	.st5{fill:#FFFFFF;}
</style>
<g id="g5193" transform="translate(4.988 -113.385)">
	<path id="path5113" class="st0" d="M-5.1,113.5l204.1,2247l893.6,252.1l898.8-253.9l202.4-2244.4L-5.1,113.5z M1012.1,2068.9
		l-644.9-174.1l-0.8-263.3c0,0,0.1,0,0.4,0.1c0.2,0,0.4,0.1,0.8,0.2L790,1747.1l0.8,0.2l2.5-1128.2v-2.5l0-20.2v-0.9h218.7V2068.9z
		 M1826,2237.9L1103,2436l0-2.7l-6.8-2119.9h900.5L1826,2237.9z"/>
	<path class="st1" d="M793.3,619.1l-2.5,1128.2c-0.3-0.1-0.6-0.1-0.8-0.2v0l1.7-570.9L793.3,619.1z"/>
	<path class="st2" d="M1007.8,601.5v730.7c0,580.6-1.7,730.7-7.7,730.7c-4.3-0.9-31.7-7.7-60-15.4c-28.3-8.6-168.1-46.3-310.5-84.9
		l-258.2-69.5v-129.5c0-126.9,0-129.5,12.9-125.2c6.9,2.6,101.2,28.3,209.3,58.3l196.4,54l0-3.7c0.3,0.1,0.6,0.2,0.8,0.2l2.5-1128.2
		v-2.5l0-15.1H1007.8z"/>
	<path class="st3" d="M1012.1,596.4v1472.6l-644.9-174.1l-0.8-263.3c0,0,0.1,0,0.4,0.1c12.2,3.4,273.2,76.9,423.2,115.4l0,3.7
		l-196.4-54c-108.1-30-202.4-55.8-209.3-58.3c-12.9-4.3-12.9-1.7-12.9,125.2v129.5l258.2,69.5c142.4,38.6,282.2,76.3,310.5,84.9
		c28.3,7.7,55.8,14.6,60,15.4c6,0,7.7-150.1,7.7-730.7V601.5H793.4l0,15.1l0-20.2H1012.1z"/>
	<path id="path5117" class="st4" d="M1096.1,312.5v2122.6l6.8-1.9l723-196.2l170.6-1923.7l0.1-0.9H1096.1z M1868,857.9l-466.6,1.7
		v384.2l437.4-48.9l-59.2,719.6L1187,2068.9l-4.3-260.7l428.8-114.1l6-212.7l-425.4,72.9l-9.4-955.4l704.1-3.4L1868,857.9z"/>
	<polygon class="st5" points="1401.4,859.7 1401.4,1243.9 1838.8,1195 1779.7,1914.5 1187,2068.9 1182.7,1808.2 1611.6,1694.1 
		1617.6,1481.4 1192.2,1554.3 1182.7,598.9 1886.9,595.5 1868,857.9 	"/>
</g>
</svg>
