<svg xmlns="http://www.w3.org/2000/svg" xmlns:xlink="http://www.w3.org/1999/xlink" viewBox="0 0 92.9 87"><defs><style>.cls-1{fill:none;}.cls-2{clip-path:url(#clip-path);}.cls-3{fill:#efe7f2;}</style><clipPath id="clip-path" transform="translate(0.03)"><rect class="cls-1" width="93" height="87"/></clipPath></defs><g id="Calque_2" data-name="Calque 2"><g id="Calque_1-2" data-name="Calque 1"><g class="cls-2"><path class="cls-3" d="M3.93,86.58A4.81,4.81,0,0,0,6.21,87a6.22,6.22,0,0,0,5.8-4l11.6-28.44H49.92l11.6,28.44a6.17,6.17,0,1,0,11.39-4.77L42.67,4a6.23,6.23,0,0,0-11.6,0L.41,78.49A6.2,6.2,0,0,0,3.93,86.58ZM36.87,22.63,45,42.36H28.79Z" transform="translate(0.03)"/><path class="cls-3" d="M63.8,39.45l3.52,8.72h8.9L84.3,67.69a4.32,4.32,0,0,0,4.14,2.7A4.84,4.84,0,0,0,90.1,70a4.53,4.53,0,0,0,2.49-5.81L71.46,12.87a4.32,4.32,0,0,0-4.14-2.7,4.54,4.54,0,0,0-4.15,2.7L57,25.12l4.76,11.63,5.6-10.59L72.7,39.24H64.21C64,39.45,64,39.45,63.8,39.45Z" transform="translate(0.03)"/></g></g></g></svg>