<svg xmlns="http://www.w3.org/2000/svg" viewBox="0 0 297.91 74.01"><defs><style>.cls-1{fill:#7f3996;}</style></defs><g id="Calque_2" data-name="Calque 2"><g id="Calque_1-2" data-name="Calque 1"><path class="cls-1" d="M62.67,49.12C46,39.68,29.31,41.53,11.46,42.2c4.54-4.72,9.43-4.38,15.16-8.26C14,35.46,9.77,24.5,0,22.31a16.82,16.82,0,0,1,13.65-4.38c7.91.84,15.66-.84,23.24-2.19,4.72-.84,8.59-5.06,13.48-6.91C63.34,3.6,76.48,2.76,90,2.42c6.9-.17,13.3-2.86,20.89-2.36,23.41,1.35,47,4.39,70.58,2.53C203,.91,223.37,8.32,244.26,10.51c12.3,1.35,24.6,3.71,36.73,5.9,4.54.85,12.12,1.86,10.61,6.58-2.19,6.91,2.19,6.23,5.22,8.43,1.52,1.18,1.69,3.2-1,3.37-4,.5-8.09,3.2-12.3,1.68-12.46-4.55-24.09,3.37-36.72,1,2.69,2.36,5.05,4.05,4,7.59-1.18,3.54-3.87,3.71-6.74,3.37-4.54-.5-8.76,1-13.81,2.53,4.55,1.18,9.1,1,11.62,4.72C236,61.42,236,61.42,246,71c-7.25,1.68-13.31,2.86-21.06,1.68-15.5-2.19-31.5-2.69-47.34-3-2.52,0-9.26,2.7-10.78,2.19-8.76-3.54-17.52,2.87-25.77-1-6.74-3.2-13.48-2.7-20.39-1.18C113,71.37,105.12,71,97.37,71.53c-13.65.85-27.29,3.54-40.94,2-12-1.35-23.92-3.21-35.88-3.37-1.18,0-3,.5-3.37-1.52s1.18-3,2.87-3.54c4.21-.84,9.6,0,9.6-7.08,0-1.69,2.69-1.35,4.38-1.69C43.8,55.52,51.88,50,62.67,49.12Z"/></g></g></svg>