<svg xmlns="http://www.w3.org/2000/svg" xmlns:xlink="http://www.w3.org/1999/xlink" viewBox="0 0 125.43 174.49"><defs><style>.cls-1{fill:none;}.cls-2{clip-path:url(#clip-path);}.cls-3{fill:#efe7f2;}</style><clipPath id="clip-path" transform="translate(-17.94 -7.34)"><rect class="cls-1" x="0.45" y="36.88" width="160" height="115" transform="translate(-35.01 139.65) rotate(-70.96)"/></clipPath></defs><g id="Calque_2" data-name="Calque 2"><g id="Calque_1-2" data-name="Calque 1"><g class="cls-2"><path class="cls-3" d="M66,36.51a15,15,0,1,0-9.28-19.07A15,15,0,0,0,66,36.51Zm8.16-23.63a10,10,0,1,1-12.72,6.19A10,10,0,0,1,74.19,12.88Z" transform="translate(-17.94 -7.34)"/><path class="cls-3" d="M71.88,157.54a10,10,0,0,1-6.19-12.72l4.85-14.06,39.93-8A14.94,14.94,0,0,0,121.64,113l2.61-7.57a16.59,16.59,0,0,1-4.73-1.63l-2.61,7.56a10.08,10.08,0,0,1-7.42,6.57l-37.08,7.44L99.93,45.57a15,15,0,0,0-9.28-19.08l-.12,0a16.63,16.63,0,0,1-.7,2.41c-.28.82-.65,1.49-.93,2.32l.12,0a10,10,0,0,1,6.19,12.71L90.76,56.81l-39.93,8a14.94,14.94,0,0,0-11.17,9.76l-2.61,7.56a17.22,17.22,0,0,1,4.73,1.63l2.61-7.56a10,10,0,0,1,7.42-6.56l37.08-7.44L61,143.19a15.06,15.06,0,0,0,9.29,19.08l1.3.44A16.52,16.52,0,0,1,73.18,158Z" transform="translate(-17.94 -7.34)"/><path class="cls-3" d="M96,152.65a15,15,0,1,0,9.29,19.08A15,15,0,0,0,96,152.65Zm-8.15,23.64a10,10,0,1,1,12.72-6.2A10,10,0,0,1,87.89,176.29Z" transform="translate(-17.94 -7.34)"/><path class="cls-3" d="M37.83,87.61a15,15,0,1,0,9.28,19.07A15.05,15.05,0,0,0,37.83,87.61Zm-8.16,23.63a10,10,0,1,1,12.72-6.19A10,10,0,0,1,29.67,111.24Z" transform="translate(-17.94 -7.34)"/><path class="cls-3" d="M133.26,71.61a15,15,0,1,0,9.29,19.07A15,15,0,0,0,133.26,71.61Zm-8.15,23.63a10,10,0,1,1,12.71-6.19A10,10,0,0,1,125.11,95.24Z" transform="translate(-17.94 -7.34)"/></g></g></g></svg>