<svg xmlns="http://www.w3.org/2000/svg" viewBox="0 0 222.22 245.75"><defs><style>.cls-1{fill:#7f3996;}</style></defs><g id="Calque_2" data-name="Calque 2"><g id="Calque_1-2" data-name="Calque 1"><path class="cls-1" d="M136.71,69.05c-.9-.6-1.7-1.2-2.6-1.7a5.16,5.16,0,0,0-5.1-.1,5.09,5.09,0,0,0-2.6,4.4v29.4a4.44,4.44,0,0,1-4.4,4.4h-21.8a4.44,4.44,0,0,1-4.4-4.4V71.65a5.12,5.12,0,0,0-7.8-4.3c-.9.6-1.8,1.2-2.8,1.8a44.75,44.75,0,0,0-18.8,36.4V107a44.46,44.46,0,0,0,19.1,35.2c1,.7,2,1.4,3,2v78.4a23,23,0,0,0,21.1,23.2H111a22.53,22.53,0,0,0,22.6-22.5v-79.2c.9-.5,1.8-1.1,2.7-1.7a44.47,44.47,0,0,0,19.4-35.7,3.08,3.08,0,0,0,.1-1v0A44.58,44.58,0,0,0,136.71,69.05Zm8.9,37.2a34.52,34.52,0,0,1-15,27.8,26.69,26.69,0,0,1-4.3,2.5,5.16,5.16,0,0,0-2.8,4.6v82.2a12.34,12.34,0,0,1-3.7,8.8,12.49,12.49,0,0,1-8.8,3.6h-.7a12.87,12.87,0,0,1-11.7-13v-81.6a5,5,0,0,0-3-4.6,33.74,33.74,0,0,1-4.4-2.6,34.19,34.19,0,0,1-14.7-27.5v-.8a34,34,0,0,1,9.1-23.2v18.6a14.62,14.62,0,0,0,14.6,14.6H122a14.62,14.62,0,0,0,14.6-14.6V82.35a34.41,34.41,0,0,1,9.1,23.3Z"/><path class="cls-1" d="M222.2,111.55a107,107,0,0,1-1.5,18.1,5.06,5.06,0,0,1-5,4.2H202.37a1.76,1.76,0,0,0-1.71,1.32,95.27,95.27,0,0,1-9.76,23.4,1.77,1.77,0,0,0,.27,2.15l9.63,9.63a5.12,5.12,0,0,1,.3,6.4,113.34,113.34,0,0,1-25.5,25.3,5.12,5.12,0,0,1-5.8.1,4.36,4.36,0,0,1-1.1-.9c-2.3-2.4-4.5-4.6-6.7-6.8-.77-.84-1.55-1.64-2.32-2.42a1.77,1.77,0,0,0-2.17-.27l-.31.19a4.94,4.94,0,0,1-7.4-4.3v-.3a4.93,4.93,0,0,1,2.6-4.3,42.76,42.76,0,0,0,4.2-2.6,5,5,0,0,1,5.8.1,5.8,5.8,0,0,1,1.5,1.3l5.4,5.4,2.87,2.87a1.78,1.78,0,0,0,2.38.12,105.3,105.3,0,0,0,14.86-14.77,1.77,1.77,0,0,0-.1-2.35l-1.21-1.27c-1.9-2-5.1-5-7.1-6.9a6.56,6.56,0,0,1-1.4-1.7,5.79,5.79,0,0,1,.1-5.7,82.5,82.5,0,0,0,12.3-29.7,5.13,5.13,0,0,1,5-4.1h12.32a1.76,1.76,0,0,0,1.76-1.57,98.61,98.61,0,0,0,.52-10.53c0-4.2-.3-8.3-.7-12.3h-.2c-4.1,0-8.2,0-12.3.1a8.92,8.92,0,0,1-3.2-.3,5.06,5.06,0,0,1-3.8-3.9,81.64,81.64,0,0,0-12.2-29.4,5,5,0,0,1,0-5.5,13.51,13.51,0,0,1,2.6-3c2.24-2.33,4.63-4.73,7-7.08a1.78,1.78,0,0,0,.13-2.37A97,97,0,0,0,172.6,32c-2.8,2.9-5.8,5.8-8.7,8.8a10.68,10.68,0,0,1-3.3,2.3,5.44,5.44,0,0,1-4.8-.6,80.58,80.58,0,0,0-29.3-11.9,5,5,0,0,1-4-3.9,16.41,16.41,0,0,1-.2-2.3V11.25a107.46,107.46,0,0,0-11.09-.68H111a107.46,107.46,0,0,0-11.09.68v13.1a16.41,16.41,0,0,1-.2,2.3,5,5,0,0,1-4,3.9,80.58,80.58,0,0,0-29.3,11.9,5.44,5.44,0,0,1-4.8.6,10.68,10.68,0,0,1-3.3-2.3c-2.9-3-5.9-5.9-8.7-8.8a97,97,0,0,0-16.31,16,1.78,1.78,0,0,0,.13,2.37c2.35,2.35,4.74,4.75,7,7.08a13.51,13.51,0,0,1,2.6,3,5,5,0,0,1,0,5.5,81.64,81.64,0,0,0-12.2,29.4,5.06,5.06,0,0,1-3.8,3.9,8.92,8.92,0,0,1-3.2.3c-4.1-.1-8.2-.1-12.3-.1h-.2c-.4,4-.7,8.1-.7,12.3a98.61,98.61,0,0,0,.52,10.53,1.76,1.76,0,0,0,1.76,1.57H25.21a5.13,5.13,0,0,1,5,4.1,82.5,82.5,0,0,0,12.3,29.7,5.79,5.79,0,0,1,.1,5.7,6.56,6.56,0,0,1-1.4,1.7c-2,1.9-5.2,4.9-7.1,6.9l-1.21,1.27a1.77,1.77,0,0,0-.1,2.35,105.3,105.3,0,0,0,14.86,14.77,1.78,1.78,0,0,0,2.38-.12l8.27-8.27a5.8,5.8,0,0,1,1.5-1.3,5,5,0,0,1,5.8-.1,42.76,42.76,0,0,0,4.2,2.6,4.93,4.93,0,0,1,2.6,4.3v.3A4.94,4.94,0,0,1,65,192l-.31-.19a1.77,1.77,0,0,0-2.17.27c-.77.78-1.55,1.58-2.32,2.42-2.2,2.2-4.4,4.4-6.7,6.8a4.36,4.36,0,0,1-1.1.9,5.12,5.12,0,0,1-5.8-.1,113.34,113.34,0,0,1-25.5-25.3,5.12,5.12,0,0,1,.3-6.4L31,160.72a1.77,1.77,0,0,0,.27-2.15,95.27,95.27,0,0,1-9.76-23.4,1.76,1.76,0,0,0-1.71-1.32H6.51a5.06,5.06,0,0,1-5-4.2A107,107,0,0,1,0,111.55a99.8,99.8,0,0,1,1.4-18.3A5.26,5.26,0,0,1,6.61,89H19.73a1.79,1.79,0,0,0,1.72-1.33,90,90,0,0,1,9.65-23.1,1.77,1.77,0,0,0-.24-2.15c-3.09-3.16-6.18-6.25-9.35-9.42a5,5,0,0,1-.6-6.6,111.51,111.51,0,0,1,25.7-25.6,5.17,5.17,0,0,1,6.6.6l5.1,5.1c1.39,1.39,2.86,2.79,4.33,4.3a1.79,1.79,0,0,0,2.17.29,92.23,92.23,0,0,1,20.54-8.83,1.78,1.78,0,0,0,.91-.63C87.21,20.35,88.1,19.27,89,18A1.74,1.74,0,0,0,89.41,17V6.35a5.05,5.05,0,0,1,4.3-5A118.59,118.59,0,0,1,111,0h.21A118.59,118.59,0,0,1,128.5,1.35a5.05,5.05,0,0,1,4.3,5V17a1.74,1.74,0,0,0,.37,1.08c.94,1.24,1.83,2.32,2.78,3.55a1.78,1.78,0,0,0,.91.63A92.23,92.23,0,0,1,157.4,31a1.79,1.79,0,0,0,2.17-.29c1.47-1.51,2.94-2.91,4.33-4.3l5.1-5.1a5.17,5.17,0,0,1,6.6-.6,111.51,111.51,0,0,1,25.7,25.6,5,5,0,0,1-.6,6.6c-3.17,3.17-6.26,6.26-9.35,9.42a1.77,1.77,0,0,0-.24,2.15,90,90,0,0,1,9.65,23.1A1.79,1.79,0,0,0,202.48,89H215.6a5.26,5.26,0,0,1,5.2,4.3A99.8,99.8,0,0,1,222.2,111.55Z"/></g></g></svg>