<svg xmlns="http://www.w3.org/2000/svg" data-name="Layer 1" viewBox="0 0 128 160" x="0px" y="0px"><title>Miscellaneous 89 expandlines</title><path d="M38,24A12,12,0,1,0,26,12,12.013,12.013,0,0,0,38,24ZM38,4a8,8,0,1,1-8,8A8.009,8.009,0,0,1,38,4Z"/><path d="M74,114a8.009,8.009,0,0,1-8-8V94.144L94.084,77.623A12.044,12.044,0,0,0,100,67.28V60.861a14.473,14.473,0,0,1-4,0V67.28a8.03,8.03,0,0,1-3.944,6.9L66,89.5V22A12.013,12.013,0,0,0,54,10h-.139A16.006,16.006,0,0,1,54,12a16.006,16.006,0,0,1-.139,2H54a8.009,8.009,0,0,1,8,8V32.856L33.916,49.377A12.044,12.044,0,0,0,28,59.72v6.419a14.473,14.473,0,0,1,4,0V59.72a8.03,8.03,0,0,1,3.944-6.9L62,37.5V106a12.013,12.013,0,0,0,12,12h1.139a14.473,14.473,0,0,1,0-4Z"/><path d="M91,104a12,12,0,1,0,12,12A12.013,12.013,0,0,0,91,104Zm0,20a8,8,0,1,1,8-8A8.009,8.009,0,0,1,91,124Z"/><path d="M30,70A12,12,0,1,0,42,82,12.013,12.013,0,0,0,30,70Zm0,20a8,8,0,1,1,8-8A8.009,8.009,0,0,1,30,90Z"/><path d="M98,33a12,12,0,1,0,12,12A12.013,12.013,0,0,0,98,33Zm0,20a8,8,0,1,1,8-8A8.009,8.009,0,0,1,98,53Z"/><text x="0" y="143" fill="#000000" font-size="5px" font-weight="bold" font-family="'Helvetica Neue', Helvetica, Arial-Unicode, Arial, Sans-serif">Created by priyanka</text><text x="0" y="148" fill="#000000" font-size="5px" font-weight="bold" font-family="'Helvetica Neue', Helvetica, Arial-Unicode, Arial, Sans-serif">from the Noun Project</text></svg>