<svg xmlns="http://www.w3.org/2000/svg" viewBox="0 0 122 118.81"><defs><style>.cls-1{fill:#470137;}.cls-2{fill:#ff61f6;}</style></defs><g id="Calque_2" data-name="Calque 2"><g id="Calque_1-2" data-name="Calque 1"><path class="cls-1" d="M21.6,0h78.8A21.58,21.58,0,0,1,122,21.58V97.23a21.58,21.58,0,0,1-21.6,21.58H21.6A21.58,21.58,0,0,1,0,97.23V21.58A21.58,21.58,0,0,1,21.6,0Z"/><path class="cls-2" d="M64.15,31.22,48.9,56.36,65.17,83a.9.9,0,0,1,.1.61c0,.2-.25,0-.56.1H53.07c-.81,0-1.37,0-1.73-.56C50.27,81,49.16,79,48.09,76.82s-2.24-4.22-3.46-6.4-2.44-4.37-3.66-6.6h-.1c-1.07,2.18-2.24,4.37-3.41,6.55s-2.33,4.37-3.45,6.5-2.34,4.31-3.51,6.4c-.2.5-.61.55-1.17.55H18.15c-.21,0-.36.11-.36-.15a.73.73,0,0,1,.1-.56L33.7,57.22l-15.4-26c-.15-.2-.2-.4-.1-.5a.57.57,0,0,1,.51-.21H30.25a3.12,3.12,0,0,1,.71.1,1.7,1.7,0,0,1,.51.46c1,2.18,2.08,4.37,3.25,6.55s2.39,4.32,3.66,6.45,2.34,4.26,3.41,6.45h.1c1.06-2.24,2.18-4.42,3.3-6.55s2.29-4.27,3.46-6.4,2.29-4.32,3.4-6.4a.86.86,0,0,1,.31-.5.93.93,0,0,1,.66-.11H63.75a.47.47,0,0,1,.55.36C64.36,30.92,64.25,31.12,64.15,31.22Z"/><path class="cls-2" d="M87.64,84.79A25.19,25.19,0,0,1,76.71,82.5,17.69,17.69,0,0,1,69,75.6,22,22,0,0,1,66.24,64,20.76,20.76,0,0,1,69,53.31a21.13,21.13,0,0,1,8.08-7.87A26,26,0,0,1,90,42.5a9.24,9.24,0,0,1,1.07,0c.46.05,1,.05,1.58.1v-16c0-.35.15-.55.51-.55h10.31a.45.45,0,0,1,.51.35V74.84c0,.91,0,1.93.11,3s.15,2.09.2,3a.82.82,0,0,1-.51.81,38.75,38.75,0,0,1-8.29,2.44A44.51,44.51,0,0,1,87.64,84.79Zm5-10.16V52.3A11.36,11.36,0,0,0,91.25,52c-.56,0-1.12-.1-1.68-.1a12.63,12.63,0,0,0-5.75,1.32A11.4,11.4,0,0,0,79.5,57a11.19,11.19,0,0,0-1.67,6.44,13.92,13.92,0,0,0,.86,5.23A9.89,9.89,0,0,0,81,72.3a8.82,8.82,0,0,0,3.45,2,13.29,13.29,0,0,0,4.22.66c.77,0,1.48,0,2.14-.1A4.36,4.36,0,0,0,92.62,74.63Z"/></g></g></svg>