<svg xmlns="http://www.w3.org/2000/svg" viewBox="0 0 53.18 47.12"><defs><style>.cls-1{fill:#7f3996;}</style></defs><g id="Calque_2" data-name="Calque 2"><g id="Calque_1-2" data-name="Calque 1"><path class="cls-1" d="M14.51,37.38H6.28a21.95,21.95,0,0,1,12.24-35l-2,3.49,2.75,2.4a16.19,16.19,0,0,0-4.8,29.08Z"/><path class="cls-1" d="M26,2V0L24.47,1.84,22,4.86,26,10V7.91A16.2,16.2,0,0,1,27.4,39.7a16.42,16.42,0,0,1-3.81.44h-.22l-1.45,0L0,40.05,1.54,42.9,0,45.75H22.49c.37,0,.75,0,1.12,0A22,22,0,0,0,26,2ZM22.11,45.73h0Z"/><path class="cls-1" d="M53.18,42.26l-3.32,3.1L48,47.12V45.36H34.89l7.76-6.06H48V37.38l2,1.92Z"/></g></g></svg>