<svg xmlns="http://www.w3.org/2000/svg" xmlns:xlink="http://www.w3.org/1999/xlink" version="1.1" x="0px" y="0px" viewBox="0 0 91 113.75" enable-background="new 0 0 91 91" xml:space="preserve"><g><g><path d="M2.225,90.997h86.132c0.014,0,0.023,0,0.035,0c1.16,0,2.1-0.939,2.1-2.1c0-0.693-0.336-1.309-0.855-1.691L3.709,1.278    c-0.6-0.602-1.503-0.779-2.289-0.455C0.637,1.149,0.125,1.915,0.125,2.763v86.135C0.125,90.058,1.065,90.997,2.225,90.997z     M83.289,86.798H68.426v-4.576c0-1.16-0.939-2.1-2.1-2.1s-2.1,0.939-2.1,2.1v4.576H53.068V79.55c0-1.158-0.939-2.1-2.1-2.1    s-2.1,0.941-2.1,2.1v7.248H37.711v-4.576c0-1.16-0.94-2.1-2.1-2.1c-1.16,0-2.1,0.939-2.1,2.1v4.576h-11.16V79.55    c0-1.158-0.939-2.1-2.1-2.1c-1.159,0-2.1,0.941-2.1,2.1v7.248H4.325V71.634h7.246c1.161,0,2.1-0.939,2.1-2.1s-0.939-2.1-2.1-2.1    H4.325V56.276h4.578c1.159,0,2.1-0.939,2.1-2.1s-0.941-2.1-2.1-2.1H4.325V40.921h7.246c1.161,0,2.1-0.941,2.1-2.1    c0-1.16-0.939-2.102-2.1-2.102H4.325V25.563h4.578c1.159,0,2.1-0.941,2.1-2.102s-0.941-2.1-2.1-2.1H4.325V7.833L83.289,86.798z"/><path d="M24.927,70.968H46.96c0.012,0,0.021,0,0.033,0c1.161,0,2.101-0.941,2.101-2.102c0-0.693-0.336-1.309-0.855-1.691    L26.412,45.347c-0.6-0.6-1.503-0.779-2.288-0.455c-0.785,0.324-1.297,1.09-1.297,1.939v22.035    C22.827,70.026,23.767,70.968,24.927,70.968z M27.027,51.903l14.864,14.863H27.027V51.903z"/><path d="M86.777,45.798c-0.008-0.025-0.021-0.049-0.029-0.074c-0.035-0.127-0.08-0.252-0.141-0.371    c-0.02-0.041-0.039-0.082-0.061-0.123c-0.074-0.129-0.162-0.252-0.266-0.365c-0.012-0.014-0.02-0.027-0.031-0.041    c-0.002-0.002-0.004-0.004-0.006-0.006L49.578,6.716c-0.084-0.143-0.182-0.277-0.303-0.4c-0.111-0.113-0.234-0.209-0.361-0.291    l-3.058-3.176c-1.681-1.711-3.925-2.654-6.322-2.654c-2.34,0-4.551,0.904-6.218,2.549l-2.765,2.713    c-3.486,3.436-3.528,9.064-0.114,12.527l40.372,41.955c0.006,0.006,0.012,0.01,0.016,0.014c0.025,0.025,0.055,0.045,0.08,0.068    c0.098,0.09,0.201,0.17,0.313,0.24c0.043,0.025,0.088,0.049,0.135,0.074c0.113,0.059,0.23,0.107,0.352,0.145    c0.029,0.01,0.053,0.025,0.082,0.033l16.238,4.297c0.176,0.047,0.357,0.07,0.537,0.07c0.006,0,0.012,0,0.02,0    c1.137,0.043,2.113-0.936,2.113-2.1c0-0.295-0.061-0.574-0.17-0.83L86.777,45.798z M72.363,55.495L38.283,20.081l9.414-9.264    l34.081,35.416l-4.543,4.471L72.363,55.495z M33.497,8.452l2.763-2.715c0.88-0.867,2.043-1.344,3.274-1.344    c1.261,0,2.441,0.496,3.31,1.381l1.939,2.016l-9.412,9.264l-1.925-2C31.64,13.22,31.664,10.257,33.497,8.452z M76.422,57.396    l1.346-1.324l5.764-5.674l2.195,9.461L76.422,57.396z"/><path d="M72.447,43.2L49.387,18.841c-0.797-0.842-2.126-0.879-2.97-0.082c-0.842,0.797-0.877,2.127-0.08,2.969l23.06,24.361    c0.412,0.436,0.969,0.656,1.525,0.656c0.518,0,1.037-0.191,1.443-0.574C73.207,45.374,73.242,44.044,72.447,43.2z"/></g></g><text x="0" y="106" fill="#000000" font-size="5px" font-weight="bold" font-family="'Helvetica Neue', Helvetica, Arial-Unicode, Arial, Sans-serif">Created by BomSymbols</text><text x="0" y="111" fill="#000000" font-size="5px" font-weight="bold" font-family="'Helvetica Neue', Helvetica, Arial-Unicode, Arial, Sans-serif">from the Noun Project</text></svg>