<svg xmlns="http://www.w3.org/2000/svg" viewBox="0 0 557.79 74.14"><defs><style>.cls-1{fill:#161616;}.cls-2{fill:#623d6c;}.cls-3{fill:#8c903c;}.cls-4{fill:#506d87;}.cls-5{fill:#fff;}</style></defs><g id="Calque_2" data-name="Calque 2"><g id="Calque_1-2" data-name="Calque 1"><rect class="cls-1" width="557.79" height="74.14"/><rect class="cls-2" x="15.37" y="8.2" width="25.87" height="5.5" rx="2.75"/><rect class="cls-2" x="52.94" y="21.08" width="25.87" height="5.5" rx="2.75"/><rect class="cls-2" x="19.58" y="59.28" width="25.87" height="5.5" rx="2.75"/><rect class="cls-2" x="57.89" y="46.84" width="25.87" height="5.5" rx="2.75"/><rect class="cls-3" x="87.07" y="21.08" width="8.12" height="5.5" rx="2.75"/><rect class="cls-4" x="104.02" y="21.08" width="27.94" height="5.5" rx="2.75"/><rect class="cls-3" x="47.96" y="8.2" width="7.93" height="5.5" rx="2.75"/><rect class="cls-4" x="65.08" y="8.2" width="27.47" height="5.5" rx="2.75"/><rect class="cls-3" x="102.65" y="8.2" width="18.11" height="5.5" rx="2.75"/><rect class="cls-4" x="128.08" y="8.2" width="33.06" height="5.5" rx="2.75"/><rect class="cls-2" x="148.89" y="21.08" width="26.45" height="5.5" rx="2.75"/><rect class="cls-2" x="180.21" y="21.08" width="21.99" height="5.5" rx="2.75"/><rect class="cls-2" x="306.43" y="34.32" width="26.45" height="5.5" rx="2.75"/><rect class="cls-2" x="337.75" y="34.32" width="21.99" height="5.5" rx="2.75"/><rect class="cls-2" x="208.65" y="21.08" width="13.13" height="5.5" rx="2.75"/><rect class="cls-2" x="227.04" y="21.08" width="26.68" height="5.5" rx="2.75"/><rect class="cls-2" x="269.09" y="21.08" width="20.41" height="5.5" rx="2.75"/><rect class="cls-2" x="296.94" y="21.08" width="13.14" height="5.5" rx="2.75"/><rect class="cls-2" x="314.86" y="21.08" width="20.9" height="5.5" rx="2.75"/><rect class="cls-2" x="342.44" y="21.08" width="20.9" height="5.5" rx="2.75"/><rect class="cls-2" x="233.86" y="34.32" width="13.14" height="5.5" rx="2.75"/><rect class="cls-2" x="251.78" y="34.32" width="20.9" height="5.5" rx="2.75"/><rect class="cls-2" x="279.36" y="34.32" width="20.9" height="5.5" rx="2.75"/><rect class="cls-2" x="87.56" y="34.32" width="13.14" height="5.5" rx="2.75"/><rect class="cls-2" x="105.47" y="34.32" width="20.9" height="5.5" rx="2.75"/><rect class="cls-2" x="133.05" y="34.32" width="20.9" height="5.5" rx="2.75"/><rect class="cls-2" x="368.61" y="21.08" width="25.94" height="5.5" rx="2.75"/><rect class="cls-2" x="400.9" y="21.08" width="20.99" height="5.5" rx="2.75"/><rect class="cls-2" x="429.96" y="21.08" width="18.06" height="5.5" rx="2.75"/><rect class="cls-2" x="453.58" y="21.08" width="26.31" height="5.5" rx="2.75"/><rect class="cls-2" x="484.5" y="21.08" width="25.44" height="5.5" rx="2.75"/><rect class="cls-2" x="516.87" y="21.08" width="6.29" height="5.5" rx="2.75"/><rect class="cls-2" x="527.23" y="21.08" width="6.29" height="5.5" rx="2.75"/><rect class="cls-2" x="538.46" y="21.08" width="13.56" height="5.5" rx="2.75"/><rect class="cls-2" x="159.52" y="34.32" width="25.44" height="5.5" rx="2.75"/><rect class="cls-2" x="191.89" y="34.32" width="6.29" height="5.5" rx="2.75"/><rect class="cls-2" x="202.25" y="34.32" width="6.29" height="5.5" rx="2.75"/><rect class="cls-2" x="213.48" y="34.32" width="13.56" height="5.5" rx="2.75"/><rect class="cls-2" x="257.31" y="21.08" width="6.21" height="5.5" rx="2.75"/><rect class="cls-2" x="426.85" y="34.32" width="26.68" height="5.5" rx="2.75"/><rect class="cls-2" x="457.13" y="34.32" width="6.21" height="5.5" rx="2.75"/><rect class="cls-2" x="377.86" y="34.32" width="20.41" height="5.5" rx="2.75"/><rect class="cls-2" x="405.72" y="34.32" width="13.14" height="5.5" rx="2.75"/><rect class="cls-2" x="366.08" y="34.32" width="6.21" height="5.5" rx="2.75"/><path class="cls-5" d="M48.34,26.63l-.27,1.75-2.47-3.9v-1.3l2.47-3.9L48.34,21l-2,2.7V24Z"/><path class="cls-5" d="M48.34,52.39l-.27,1.75-2.47-3.9v-1.3L48.07,45l.27,1.75-2,2.7v.22Z"/><path class="cls-5" d="M10.45,64.83l-.28,1.75L7.7,62.68v-1.3l2.47-3.89.28,1.74-2,2.71v.21Z"/><path class="cls-5" d="M10.45,13.74l-.28,1.76L7.7,11.6V10.3l2.47-3.9.28,1.75-2,2.7v.22Z"/><path class="cls-5" d="M138.84,24v-.22l-2-2.7.28-1.75,2.47,3.9v1.3l-2.47,3.9-.28-1.75Z"/><path class="cls-5" d="M90.34,49.71v-.22l-2-2.7L88.66,45l2.47,3.9v1.3l-2.47,3.9-.28-1.75Z"/><path class="cls-5" d="M52.51,62.15v-.21l-2-2.71.28-1.74,2.46,3.89v1.3l-2.46,3.9-.28-1.75Z"/><path class="cls-5" d="M168.61,11.07v-.22l-2-2.7.27-1.75,2.47,3.9v1.3l-2.47,3.9-.27-1.76Z"/><polygon class="cls-5" points="52.23 54.97 51.06 53.81 54.42 44.52 55.52 45.54 52.23 54.97"/><polygon class="cls-5" points="13.37 67.26 12.2 66.1 15.56 56.81 16.66 57.83 13.37 67.26"/></g></g></svg>