<svg xmlns="http://www.w3.org/2000/svg" viewBox="0 0 3453 3212"><defs><style>.cls-1{fill:#7f3996;}</style></defs><g id="Calque_2" data-name="Calque 2"><g id="Calque_1-2" data-name="Calque 1"><path class="cls-1" d="M0,3208V2636c5.31-1.63,5.62-5.94,5.62-10.44,0-10.67.18-21.34,0-32-.09-5,1.57-8.63,5.21-12.25,17-16.92,34.91-32.75,54.66-46.51,11.06-7.71,22.32-10.43,35.29-5.77,2.89,1,6.48.16,7.94.16,5.67-5.37,9.61-10.54,14.77-13.72,14.4-8.86,29.15-17.22,44.08-25.17,12.91-6.88,26.54-12.42,39.35-19.45,20.81-11.42,42.7-20.05,65.09-27.7,11.62-4,23-8.72,34.39-13.29,11.1-4.45,22-9.45,33.19-13.6,12.4-4.6,25.06-8.49,37.6-12.73a15.28,15.28,0,0,0,2.52-1.51c4.24-2.52,8.26-5.58,12.78-7.45,8.89-3.68,18.17-6.43,27.09-10.05,17.57-7.11,34.61-15.88,52.65-21.4,11.93-3.66,23-7.61,33.7-14.26,9.4-5.83,20.89-8.17,31.2-12.64,9.12-4,17.85-8.82,27.87-10.38a5.52,5.52,0,0,0,3.4-1.83c6.43-8.82,16.5-10.41,25.9-13.37a118.48,118.48,0,0,0,12.94-4.5c9.88-4.39,19.61-9.14,29.43-13.67,24.36-11.24,48.87-22.11,74.77-29.47,1-.27,2.21-.29,2.82-.92C721,2255,730.92,2254.33,739,2250c16.65-8.9,35.14-13.65,51.66-23.19,11.95-6.91,25.2-11.59,37.94-17.11,11.17-4.83,22.57-9.11,33.6-14.22,19.92-9.22,39.67-18.78,59.41-28.36a359.68,359.68,0,0,0,49.74-29c7.55-5.29,15.13-10.48,22.55-16,5.74-4.27,12.81-6.77,19.29-10.06a32.91,32.91,0,0,0,5.18-2.68c10.28-7.88,20.2-16.26,30.76-23.75,28-19.85,55.39-40.22,76.16-68.11,1.56-2.1,3.9-3.61,5.8-5.46,9-8.72,18.16-17.26,25.22-27.72,3.13-4.65,6.59-9.09,9.39-13.93,3.52-6.08,8.76-10.75,9.63-19,.65-6.17,5.45-12.63,12.88-15.38,15.51-5.76,15.27-7,17.89-23.81.25-1.6-.31-3.3-.31-5,0-7.32-.06-14.65.3-22,.11-2,1.18-5.29,2.57-5.76,6.63-2.24,5.58-7.34,5.43-12.27a78.81,78.81,0,0,1-.09-9.47c.53-5.88,1.41-11.73,2.08-17.14l-6.4-5c4.42-6.68,6.89-13.08,6.75-21.16-.25-14.83-1.07-29-12.44-40-19.5-18.83-34.83-40.94-50.2-63-4.87-7-10.33-13.77-14-21.37-7.78-16-17.5-31-23.46-48.14-8.41-24.21-17.22-48.17-22.42-73.33-2.4-11.6-5.32-23.1-8.34-36.1-5.71.85-11.55,1.45-17.27,2.62-8.86,1.81-17.5,3.35-26.45-.16-19-7.47-30.61-21.63-37.38-40.3-.61-1.68-1.11-4.18-.31-5.43,2.6-4,.72-6.42-1.67-9.65s-6.07-8.81-4.88-11.22c2.75-5.56.29-9.92.35-15.48-9.42,1.62-11.87-4.56-14-11.15-3.83-11.64-7.15-23.48-11.72-34.81-7.7-19.07-15.9-38-24.44-56.65-8.85-19.38-12.56-39.85-13.45-60.82-.84-19.64,2.74-38.67,11.32-56.2-6.12-7.24-7.31-12.23-2.69-15.82,7.44-5.78,8.14-12.11,3.22-19.74,8.23-6.41,13.72-14,15.81-23.94.65-3.12,1-5-1-8-3.75-5.83-2.89-9.46,2.68-14.79,4.59-4.38,5.6-8.71,2.11-14.09a12.92,12.92,0,0,1-1-3.56l2.15,1.54c5.37-7.13,10.74-14.27,17.13-22.74-.92-3.15-2.39-8.21-3.86-13.28-1.19-4.14-2.83-8.22-3.48-12.45-3.6-23.71-7.24-47.44-4.56-71.54.38-3.5,1.72-6.89,2.52-10.36,1.48-6.42,3.13-12.82,4.24-19.3.66-3.85.28-7.86.64-11.77.72-7.91,2.77-15.9,2.17-23.7-.78-10.17-6.81-18.49-13.62-25.94-10.42-11.39-22.61-21.26-30.33-35a20.08,20.08,0,0,0-3.51-4.82c-5.86-5.5-7.11-12.94-6.73-20,.28-5.14-.77-8.16-5.31-10,3.32-6.74-2.15-14.41,3.76-20.25.54-.53-.4-2.48-.54-3.79-.35-3.27-.73-6.55-.92-9.83-.56-9.35.47-19.12-1.91-28-2.91-10.82-8.65-20.88-13.55-32.16a17.69,17.69,0,0,0,.89-2.55c1.91-8.1,4.67-16.31-4.26-22.47-1.13-.79-1.45-2.87-2-4.4-2.06-5.82-2.52-13.12-6.39-17.19-7-7.41-2.39-19.46-11.56-25.35-.29-.19,0-1.26,0-1.92,0-7-2.08-13.68-3.69-20.44-2-8.57-2-17.63-6.15-25.74-.65-1.26.19-3.26.15-4.91,0-2,.19-4.12-.56-5.81-2-4.42-1.4-8.1,1.18-12.19,1.15-1.82,1-5.16.24-7.37-3.57-10-1.07-18,6.77-25,4.76-4.25,8.55-9.47,8.74-16.25.17-5.89-1.23-11.86,3.15-17.17,1-1.19-.13-4.38-.7-6.54-2.51-9.51-.92-17.74,6.94-24.29,5-4.2,7.68-9.69,9.19-16.08a75.59,75.59,0,0,1,5.65-15.74c.9-1.84,4-3.45,6.24-3.58,4.37-.26,7.36-2.59,8.41-6,3.68-11.92,11.47-20.85,19.87-29.47,3.61-3.71,5.73-7.95,5.29-13.47-.18-2.33,1.26-4.82,2.1-7.19.64-1.78,2.28-3.54,2.14-5.2-.49-6.06,2.48-10.73,5-15.83,3.31-6.82,11.29-11.69,9.09-20.95-.17-.69.9-1.71,1.45-2.54,4.18-6.26,8.32-12.54,12.56-18.75s1.23-16,9.92-20.24c.7-.34.27-3.06.34-4.67.38-8.87,1.2-17.36,12.23-19.83,2-.45,3.65-2.53,5.47-3.86-5-6.67-4.57-6.78.09-12.48,5.53-6.76,11.53-13.44,13.32-22.47.75-3.82,2.7-6.21,6.76-5.67,5.27.71,6.6-1.84,7.73-6.57a21.24,21.24,0,0,1,6.55-10.53c4.87-4.12,10.73-7.06,16.57-10.76-3.34-7.62.08-13.21,4-18.79,1.85-2.66,3.13-5.72,4.81-8.51.84-1.4,1.78-3.44,3-3.77,7.22-1.88,9.84-9.36,15.94-12.69,2.19-1.19,3.32-4.63,4.53-7.23,2.89-6.22,5.1-12.8,8.4-18.79a223.19,223.19,0,0,1,14.38-22.82A55.23,55.23,0,0,1,1134,144.78c4.1-3.17,9-5.27,13.31-8.21,1.4-1,3.06-3.34,2.77-4.66-1.48-6.64,3.17-9.63,7-13.27,1.85-1.75,4.14-3.48,5-5.7,3.34-8.2,9-13,17.48-13.74.46-3.26-.11-7.07,1.52-9,2.52-3,5.27-5.52,6.48-9.59.52-1.76,3.21-3,5.11-4.2s4.26-1.7,6.16-2.92C1207.32,68,1215.48,62,1224.22,57c6.45-3.69,11.11-9.78,19.18-11.72,4-1,7.49-6.45,12.93-7,4.13-8.23,9-15.35,20-13.57,4.63-4.94,10.89-4.24,16.74-4.67,5.43-.39,9.81-1.92,11.28-7.83,1-3.81,3.49-5.45,7.3-5.45,3.25,0,6.51,0,9.76-.12,5.64-.22,11.32-.45,14.18-6.65h503.83l16.33,8.08c1.18.58,2.32,1.53,3.54,1.66,9.47,1,19,1.86,28.43,2.75,1.28.12,2.9-.26,3.8.38,6.33,4.52,13.51,2.37,20.37,3,5.55.48,9.57-.83,10.17-6.7,9.15.69,17.68-.92,25.79,2.25a4.17,4.17,0,0,0,2.9-.21c9.38-4.17,16.66.48,23.77,5.63,5,3.64,11,6.68,14.62,11.42,4.83,6.26,9.58,11.22,17.58,13.44,5.9,1.64,12,4.58,10.34,13.37-.3,1.57,3.69,5.75,5.42,5.59,6.82-.59,9.58,3.51,13.67,7.79,4.73,5,10.61,10,19.33,6.77a15.6,15.6,0,0,1,16.64,3.44c7.32,6.87,17.64,10.06,22.75,19.89,1.72,3.31,6.73,5.06,10.45,7.14a39.55,39.55,0,0,0,7.44,2.71c4.54,1.44,6,4.29,5.35,9.08-.72,5,1.83,8.62,6.65,8.47,5.75-.19,9,2,12.35,6.47,3.19,4.24,5.9,8,7.85,13.34,3.34,9.18,5.49,19.73,14.31,26.25.89.65,1.1,2.38,1.39,3.67,1.31,5.85-.68,12.55,4.82,17.43.68.6-.68,3.52-1.4,6.73,10.1,1.68,19.88,2.73,29.34,5.06,7.17,1.75,15.29.83,21.23,6.79,8.37,8.42,16.9,16.67,23.62,23.27,0,6.29-1.21,10.84.29,14.18,2,4.54,6.13,8.16,10.12,13.14,6.83,1.09,15,2.23,23,3.72,10,1.84,20,5.68,29.91,5.46,8.6-.18,13.44,3.49,18.52,8.7,6.71,6.87,13.45,13.72,20.24,20.64-1.94,5.52-4.4,10.74,2.59,15.32,2.44,1.6,2.92,6.41,4,9.85.79,2.51.2,5.94,1.71,7.65,8.47,9.61,3.19,22.26,7.65,32.66.2.47-.4,1.23-.44,1.87-.35,4.83-.57,9.67-1,14.5-.79,9.27,3.91,18.92-2.24,27.5,6.82,6.83,7.43,11.67,4.08,19.68a25.92,25.92,0,0,0-1.66,11.33,77.52,77.52,0,0,1,.35,12.51c-.65,7.24-2.19,16.32,9.23,18.5,2.12.4,5.33,3.58,5.26,5.37-.2,5.67,4.26,7.78,7,11.13,3.57,4.38,7.67,8.33,11.3,12.66,1.67,2,4.19,4.67,3.9,6.69-1.48,10.32,3.87,16.07,13,20.16-.57,4.46-.26,9-1.89,12.74s-3.12,6.34-.63,10c1.93,2.87.32,6.28-2.42,6.07-7.91-.61-12.58,5.55-19,7.79-5,1.75-9,3.38-9.53,9.8-.18,2.06-4,4-6.35,5.63a35.28,35.28,0,0,1-6,2.67c.7,9.94,1.29,11.16,13.62,28.6-4.94,3.15-4.83,3.19-6.89,9.35-1.13,3.39-2.05,7-6.68,7.77-1.38.21-2.51,2-3.77,3-6.23,5-8.16,12.47-11.21,19.81,7.35,8.28,1.52,18.3,2.67,27.64a35.46,35.46,0,0,0,1.66,7c2.56,7.83,4.44,16.25.78,23.87-2.69,5.59-5,10.43-3.42,16.84.67,2.67-.61,5.9-1.22,8.83-2.8,13.3-5.61,26.6-8.58,39.87-1.23,5.48-1.46,12-4.67,16-5.77,7.28-9.26,15.22-12.14,23.78-.92,2.71-3.32,4.88-4.74,7.46-2.69,4.88-6.41,9.62-7.47,14.87-1.79,8.87-4.46,17-11,23.54,3,5.73,4.11,11.42,1.49,17.44-3.29,7.54-6.41,15.14-9.62,22.78h-7.15c-.22,3.81-.35,7.12-.6,10.42-.28,3.63.36,7.81-1.25,10.74-3.05,5.57-4.32,11.35-5.25,17.45-.78,5.12-.26,22.19,1,27,4,15.29,9.21,30.43,11.62,46,2.72,17.57,3.13,35.51,4.09,53.32.26,4.86-1.25,9.8-1.73,14.73-1.15,11.82-2,23.69-3.31,35.49-.88,7.59-.63,8.91,6.75,10.2a138.37,138.37,0,0,1,33,10.53c7.71,3.45,12.35,9.89,17.8,15.6a5.67,5.67,0,0,1,1.29,4.56c-2.39,8.85,2.07,15.31,6.86,21.89a18.38,18.38,0,0,1,3.37,8.07c1.07,8.2,1.47,16.49,2.3,24.72,1.2,11.87,3.08,23.7,3.64,35.6.38,8.19,1.31,17.69-2.24,24.35s-4.16,12.8-5.39,19.41a32.76,32.76,0,0,1-1.85,6.63c-4.76,11.34-9.66,22.61-14.49,33.92-3,7-5.22,14.53-9.24,20.91a16.43,16.43,0,0,0-2.72,10c.25,10.28.79,20.59-2.88,30.54-1.61,4.35-2.67,8.91-4.26,13.28-1.69,4.65-3.71,9.18-5.58,13.76-7.35.36-2.26,7.23-5.41,10.52a12.82,12.82,0,0,0-2.49,14.67c1.56,3.49,1,8.87-.54,12.61-4.12,10-7.9,20.55-15.31,28.73-10.6,11.71-23.74,17.6-40,15.07-4.48-.7-9.08-.63-14.86-1,1.87,13.67-5.27,23.88-9.08,35.09-.85,2.49-2,5-2.18,7.58-.86,10.22-.73,20.57-2.31,30.66a97,97,0,0,1-6.9,22.65c-8.62,20.16-19.07,39.53-24.82,60.89a47.55,47.55,0,0,1-6.4,13.46c-16.68,25.26-33.7,50.29-50.37,75.54-7.87,11.91-13.44,24.3-8.24,39.32,1.78,5.17,1.58,11.2,1.44,16.81-.47,19.16-3,38.18-1.66,57.49,1.13,16.81.48,33.83-.6,50.68-.64,9.89,2,18.2,7.14,26.06,3.52,5.43,5.75,10.56-.91,16.86h7.88c.45,3.54-.23,7.47,1.41,9.23,4.65,5,5,13.06,12.47,16.16,3,1.24,5.26,5,7.11,8.09,6.7,11.11,13,22.45,19.61,33.61,4.05,6.86,7.65,14.18,12.76,20.18,6.84,8,15.51,14.53,22.36,22.58,10.64,12.5,22.79,23.18,35.62,33.27a79.76,79.76,0,0,1,11.21,11.29c10.22,12,20.44,23.8,38,24.68,2.53.12,5,1.84,7.5,2.65,25.64,8.17,50.86,18.32,77.05,23.91,29.36,6.25,57.74,15.57,86.61,23.27,12.44,3.31,24.1,9.44,36.34,13.64,41.44,14.22,82.23,30.12,122.72,46.8,10.76,4.43,21.6,8.7,32.45,12.91,24.77,9.62,49.65,19,74.35,28.8,20.07,8,39.83,16.74,59.93,24.67,18.53,7.3,37.39,13.76,56,20.95,17.64,6.84,35.07,14.19,52.64,21.22,5.86,2.35,12,4,17.75,6.64,23.17,10.9,46.2,22.11,69.32,33.11,3.57,1.7,7.54,2.59,11,4.41,5.52,2.87,12.65,5,15.75,9.63,5,7.52,11.44,10.28,19.23,10.08,13.69-.34,25.94,5,38.78,8.17,6.77,1.67,10.57,5.89,14.17,11.48,7.48,11.66,13.95,24.34,26.81,31.49a5.08,5.08,0,0,1,2.19,2c4.85,10.69,14.83,12.23,24.41,12,13.13-.33,24.68,4.92,36.79,8.15,3.18.85,6.23,3.89,8.38,6.67a225.14,225.14,0,0,1,14.84,21.21c8.06,13.35,15.66,27,23.27,40.59,1.44,2.57,2,5.62,3,8.44,2.84,7.79,5.13,15.85,8.68,23.31,10.1,21.2,16.08,43.65,21.31,66.37,1.86,8.09,3.66,16.2,5.2,24.36,1.58,8.41,2.74,16.59,1.74,25.54-1.6,14.35-3.28,29.2,3.29,43.25,4.64,9.93,8.73,20.1,13,30.2,3.49,8.24,6.12,17,10.54,24.67,5.58,9.75,12.61,18.66,19,28a46.09,46.09,0,0,1,3.56,6c5.13,10.83,10.12,21.71,15.26,32.53,1.42,3,2.56,6.51,4.91,8.58,8.94,7.89,17.72,16.22,27.68,22.65,16.69,10.77,32.92,21.46,39.88,41.42a7.46,7.46,0,0,0,2.85,4c8.76,4.67,12.71,13.26,17.72,21,1.23,1.91,2.85,4,4.81,4.91,7.56,3.5,11.23,10,14.52,17.07,3.44,7.39,7.23,14.63,10.87,21.93v196c-5.51.11-11,.3-16.53.32-3.68,0-7.19.17-9.46,3.68h-8c-1.37-1.14-2.63-3-4.14-3.27a74.14,74.14,0,0,0-11-.37q-1632.75,0-3265.5,0a88.37,88.37,0,0,0-12,.41c-1.54.21-2.86,2.1-4.28,3.22H106c-.92-1.09-1.71-3-2.78-3.13a62.61,62.61,0,0,0-9.89-.5Q46.66,3208.12,0,3208ZM2077.44,174.83c5.49-3.48,7.33-6.53,5.53-12.15-2.58-8.05-4-16.49-5.89-24.83-1.61,0-3.69-.42-5.5.1-2.34.67-5,1.64-6.41,3.4-.61.77,1.13,4.3,2.64,5.65,2.79,2.52,3.36,5.23,3.34,8.82C2071.1,162.41,2074.07,168.15,2077.44,174.83Zm193.7,175.43c3-8,2.62-12.08.12-16.82-4.83-9.18-9.7-18.39-8.27-29.41.58-4.52-1.52-6.67-7.23-6.24.88,4.3,3.16,8.49-.92,11.94-.61.53.25,4.18,1.45,5.22,6.18,5.41,7.56,13.27,10.67,20.18C2268.92,339.49,2269.59,344.44,2271.14,350.26Zm-3.27,830.37c1.24-7.5-2.85-11.55-6.68-15.71C2260.27,1171.11,2260.84,1176.66,2267.87,1180.63Zm-71.22-196.49c1.75-6,1.68-11.19-1.87-16.58C2190.41,975.42,2190.61,977.13,2196.65,984.14ZM2264,682.87l-2.27,2.53c3.58,1.51,3.64,7.09,10.19,5.34Zm-41.52,764c.18-3.28.37-6.56.55-9.84C2220.83,1440.19,2215.86,1442.85,2222.48,1446.87Zm93.93-920.08,2.22-2.38c-.88-3.2-2.88-4.86-9-4Zm-63.5-246.5,2.65-.3c-.09-1.64-.19-3.28-.28-4.92-.9.14-2.57.22-2.58.41A36.94,36.94,0,0,0,2252.91,280.29Zm-24.2,1154.09c1.26-6.71-.87-7.57-5.56-7.43C2225,1429.45,2226.27,1431.11,2228.71,1434.38Zm-148-1257.14-1.77.8c.69,1.54,1.39,3.08,2.08,4.63l1.72-.77C2082.07,180.35,2081.4,178.8,2080.72,177.24ZM2274.2,412.6l-2-3.18c-.73.51-2.14,1.22-2.06,1.48a5.52,5.52,0,0,0,1.77,2.73C2272.21,413.88,2273.4,413,2274.2,412.6Zm-9.8,893.76,1.46.62,1.83-4.27-1.45-.61Q2265.33,1304.23,2264.4,1306.36Z"/><path class="cls-1" d="M122,3212c1.42-1.12,2.74-3,4.28-3.22a88.37,88.37,0,0,1,12-.41q1632.75,0,3265.5,0a74.14,74.14,0,0,1,11,.37c1.51.23,2.77,2.13,4.14,3.27Z"/><path class="cls-1" d="M0,3208q46.65.18,93.29.37a62.61,62.61,0,0,1,9.89.5c1.07.17,1.86,2,2.78,3.13H0Z"/><path class="cls-1" d="M3426.82,3212c2.27-3.51,5.78-3.68,9.46-3.68,5.51,0,11-.21,16.53-.32-.82,1.25,2,4.11-2,4C3442.82,3211.86,3434.82,3212,3426.82,3212Z"/><path class="cls-1" d="M2077.44,174.83c-3.37-6.68-6.34-12.42-6.29-19,0-3.59-.55-6.3-3.34-8.82-1.51-1.35-3.25-4.88-2.64-5.65,1.39-1.76,4.07-2.73,6.41-3.4,1.81-.52,3.89-.1,5.5-.1,1.92,8.34,3.31,16.78,5.89,24.83C2084.77,168.3,2082.93,171.35,2077.44,174.83Z"/><path class="cls-1" d="M2271.14,350.26c-1.55-5.82-2.22-10.77-4.18-15.13-3.11-6.91-4.49-14.77-10.67-20.18-1.2-1-2.06-4.69-1.45-5.22,4.08-3.45,1.8-7.64.92-11.94,5.71-.43,7.81,1.72,7.23,6.24-1.43,11,3.44,20.23,8.27,29.41C2273.76,338.18,2274.16,342.23,2271.14,350.26Z"/><path class="cls-1" d="M2267.87,1180.63c-7-4-7.6-9.52-6.68-15.71C2265,1169.08,2269.11,1173.13,2267.87,1180.63Z"/><path class="cls-1" d="M2196.65,984.14c-6-7-6.24-8.72-1.87-16.58C2198.33,973,2198.4,978.15,2196.65,984.14Z"/><path class="cls-1" d="M2264,682.87l7.92,7.87c-6.55,1.75-6.61-3.83-10.19-5.34Z"/><path class="cls-1" d="M2222.48,1446.87c-6.62-4-1.65-6.68.55-9.84C2222.85,1440.31,2222.66,1443.59,2222.48,1446.87Z"/><path class="cls-1" d="M2316.41,526.79l-6.81-6.35c6.15-.89,8.15.77,9,4Z"/><path class="cls-1" d="M2252.91,280.29a36.94,36.94,0,0,1-.21-4.81c0-.19,1.68-.27,2.58-.41.09,1.64.19,3.28.28,4.92Z"/><path class="cls-1" d="M2228.71,1434.38c-2.44-3.27-3.68-4.93-5.56-7.43C2227.84,1426.81,2230,1427.67,2228.71,1434.38Z"/><path class="cls-1" d="M2080.72,177.24c.68,1.56,1.35,3.11,2,4.66l-1.72.77c-.69-1.55-1.39-3.09-2.08-4.63Z"/><path class="cls-1" d="M2274.2,412.6c-.8.38-2,1.28-2.33,1a5.52,5.52,0,0,1-1.77-2.73c-.08-.26,1.33-1,2.06-1.48Z"/><path class="cls-1" d="M2264.4,1306.36q.93-2.13,1.84-4.26l1.45.61-1.83,4.27Z"/></g></g></svg>