<svg xmlns="http://www.w3.org/2000/svg" viewBox="0 0 90.57 90.8"><defs><style>.cls-1{fill:#fff;}</style></defs><g id="Calque_2" data-name="Calque 2"><g id="Calque_1-2" data-name="Calque 1"><path class="cls-1" d="M2.1,90.8H88.27A2.1,2.1,0,0,0,89.51,87L3.58,1.08A2.1,2.1,0,0,0,0,2.57V88.7A2.1,2.1,0,0,0,2.1,90.8Zm81.06-4.2H68.3V82a2.1,2.1,0,0,0-4.2,0V86.6H52.94V79.36a2.1,2.1,0,0,0-4.2,0V86.6H37.59V82a2.1,2.1,0,0,0-4.2,0V86.6H22.23V79.36a2.1,2.1,0,0,0-4.2,0V86.6H4.2V71.44h7.25a2.1,2.1,0,0,0,0-4.2H4.2V56.08H8.78a2.1,2.1,0,1,0,0-4.2H4.2V40.73h7.25a2.11,2.11,0,0,0,0-4.21H4.2V25.37H8.78a2.1,2.1,0,1,0,0-4.2H4.2V7.64Z"/><path class="cls-1" d="M24.8,70.77H46.87A2.1,2.1,0,0,0,48.11,67L26.29,45.15a2.11,2.11,0,0,0-3.59,1.49v22A2.1,2.1,0,0,0,24.8,70.77Zm2.1-19.06L41.77,66.57H26.9Z"/><path class="cls-1" d="M86.65,45.6l0-.07a1.66,1.66,0,0,0-.14-.37L86.42,45a2.18,2.18,0,0,0-.26-.36s0,0,0,0h0L49.45,6.52a1.9,1.9,0,0,0-.3-.4,2,2,0,0,0-.36-.29L45.73,2.65a8.86,8.86,0,0,0-12.54-.1L30.43,5.26a8.88,8.88,0,0,0-.12,12.53l40.37,42,0,0a.27.27,0,0,1,.08.07,2.34,2.34,0,0,0,.31.24l.14.07a2.17,2.17,0,0,0,.35.15l.08,0,16.24,4.3a2.5,2.5,0,0,0,.54.07h0a2.1,2.1,0,0,0,2.11-2.1,2.05,2.05,0,0,0-.17-.83ZM72.24,55.3,38.16,19.89l9.41-9.27L81.65,46l-4.54,4.47Zm-38.87-47,2.77-2.72a4.66,4.66,0,0,1,6.58,0l1.94,2-9.41,9.26-1.93-2A4.67,4.67,0,0,1,33.37,8.26ZM76.3,57.2l1.34-1.32,5.77-5.68,2.19,9.46Z"/><path class="cls-1" d="M72.32,43,49.26,18.65a2.1,2.1,0,1,0-3,2.88L69.27,45.89a2.08,2.08,0,0,0,1.53.66A2.09,2.09,0,0,0,72.32,43Z"/></g></g></svg>