<svg xmlns="http://www.w3.org/2000/svg" xmlns:xlink="http://www.w3.org/1999/xlink" viewBox="0 0 1920 925"><defs><style>.cls-1{fill:url(#Dégradé_sans_nom_13);}.cls-2{fill:#fff;}</style><linearGradient id="Dégradé_sans_nom_13" y1="462.5" x2="1920" y2="462.5" gradientUnits="userSpaceOnUse"><stop offset="0" stop-color="#e39335"/><stop offset="1" stop-color="#de7553"/></linearGradient></defs><g id="Calque_2" data-name="Calque 2"><g id="Calque_1-2" data-name="Calque 1"><rect class="cls-1" width="1920" height="925"/><image width="2313" height="4677" transform="translate(375 108.5) scale(0.15)" xlink:href="testpng.png"/><path class="cls-2" d="M930.71,501.45H948v-3.13H934.31V476.25h-3.6Zm20-26.93a2.35,2.35,0,0,0-2.41,2.45,2.28,2.28,0,0,0,1.51,2.23l-1.33,5.37h2.27l1.73-5a7.14,7.14,0,0,0,.57-2.56A2.32,2.32,0,0,0,950.76,474.52Zm13.89,7.67a12.72,12.72,0,0,0-7.88,2.45l1.44,2.59a9.63,9.63,0,0,1,6-2.05c3.42,0,5.12,1.69,5.12,4.61v.68h-5.48c-5.68,0-7.66,2.52-7.66,5.58,0,3.31,2.73,5.62,7,5.62,3,0,5.11-1,6.27-2.74v2.52h3.27V489.93C972.82,484.71,969.87,482.19,964.65,482.19ZM963.86,499c-2.63,0-4.21-1.18-4.21-3.09,0-1.62,1-3,4.39-3h5.33v2.66A5.53,5.53,0,0,1,963.86,499Zm25.47-16.81a8.12,8.12,0,0,0-6.8,3.21v-3h-3.31v26.07h3.45v-9.87a8.17,8.17,0,0,0,6.66,3.1c5.58,0,9.65-3.89,9.65-9.76A9.26,9.26,0,0,0,989.33,482.19Zm-.28,16.45c-3.64,0-6.41-2.66-6.41-6.73s2.77-6.69,6.41-6.69a6.3,6.3,0,0,1,6.44,6.69C995.49,496,992.72,498.64,989.05,498.64Zm24.82-16.45a8.12,8.12,0,0,0-6.8,3.21v-3h-3.31v26.07h3.45v-9.87a8.17,8.17,0,0,0,6.66,3.1c5.58,0,9.65-3.89,9.65-9.76A9.26,9.26,0,0,0,1013.87,482.19Zm-.28,16.45c-3.64,0-6.41-2.66-6.41-6.73s2.77-6.69,6.41-6.69a6.3,6.3,0,0,1,6.44,6.69C1020,496,1017.26,498.64,1013.59,498.64Zm14.71,2.81h3.45V474.74h-3.45Zm11.78-22.75a2.25,2.25,0,1,0-2.34-2.23A2.26,2.26,0,0,0,1040.08,478.7Zm-1.73,22.75h3.46V482.37h-3.46Zm18.37.22c3.42,0,6.27-1.44,7.78-4.11l-2.63-1.65a5.94,5.94,0,0,1-5.18,2.73,6.71,6.71,0,0,1,0-13.42,5.94,5.94,0,0,1,5.18,2.73l2.63-1.69c-1.51-2.66-4.36-4.07-7.78-4.07-5.87,0-10.08,4-10.08,9.72S1050.85,501.67,1056.72,501.67Zm19.2-19.48a12.72,12.72,0,0,0-7.88,2.45l1.44,2.59a9.63,9.63,0,0,1,6-2.05c3.42,0,5.12,1.69,5.12,4.61v.68h-5.48c-5.68,0-7.66,2.52-7.66,5.58,0,3.31,2.73,5.62,7,5.62,3,0,5.11-1,6.27-2.74v2.52h3.27V489.93C1084.09,484.71,1081.14,482.19,1075.92,482.19Zm-.79,16.81c-2.63,0-4.21-1.18-4.21-3.09,0-1.62,1-3,4.39-3h5.33v2.66A5.53,5.53,0,0,1,1075.13,499Zm25-1.15a4.34,4.34,0,0,1-2.7.9c-1.91,0-3-1.15-3-3.2V485.22h5.47v-2.85h-5.47V478.2H1091v4.17h-3.24v2.85H1091v10.47c0,3.85,2.2,6,6,6a6.54,6.54,0,0,0,4.18-1.33Zm7-19.15a2.25,2.25,0,1,0-2.34-2.23A2.26,2.26,0,0,0,1107.12,478.7Zm-1.73,22.75h3.46V482.37h-3.46Zm18.23.22a9.5,9.5,0,0,0,9.9-9.76c0-5.69-4.18-9.72-9.9-9.72s-9.94,4-9.94,9.72A9.53,9.53,0,0,0,1123.62,501.67Zm0-3c-3.67,0-6.44-2.66-6.44-6.73s2.77-6.69,6.44-6.69,6.41,2.62,6.41,6.69S1127.29,498.64,1123.62,498.64Zm24.87-16.45a8.2,8.2,0,0,0-6.88,3.06v-2.88h-3.31v19.08h3.46v-9.83c0-4.14,2.37-6.33,6-6.33,3.28,0,5.15,1.83,5.15,5.58v10.58h3.46v-11C1156.41,484.86,1153.13,482.19,1148.49,482.19Zm47.85,0a8.59,8.59,0,0,0-7.34,3.53c-1.26-2.38-3.71-3.53-6.63-3.53a7.73,7.73,0,0,0-6.59,3v-2.85h-3.31v19.08h3.46v-9.83c0-4.14,2.27-6.33,5.72-6.33,3.13,0,4.93,1.83,4.93,5.58v10.58H1190v-9.83c0-4.14,2.27-6.33,5.72-6.33,3.14,0,4.94,1.83,4.94,5.58v10.58h3.45v-11C1204.15,484.86,1201,482.19,1196.34,482.19Zm22.45,19.48a9.5,9.5,0,0,0,9.9-9.76c0-5.69-4.18-9.72-9.9-9.72s-9.94,4-9.94,9.72A9.53,9.53,0,0,0,1218.79,501.67Zm0-3c-3.67,0-6.45-2.66-6.45-6.73a6.29,6.29,0,0,1,6.45-6.69c3.67,0,6.41,2.62,6.41,6.69S1222.46,498.64,1218.79,498.64Zm24.79-16.45a8.13,8.13,0,0,0-6.66,3.06V474.74h-3.45v26.71h3.31v-3a8.07,8.07,0,0,0,6.8,3.24c5.58,0,9.65-3.93,9.65-9.76A9.26,9.26,0,0,0,1243.58,482.19Zm-.28,16.45c-3.64,0-6.41-2.66-6.41-6.73s2.77-6.69,6.41-6.69,6.44,2.62,6.44,6.69S1247,498.64,1243.3,498.64Zm16.44-19.94a2.27,2.27,0,0,0,2.34-2.3,2.24,2.24,0,0,0-2.34-2.2,2.27,2.27,0,0,0-2.34,2.27A2.24,2.24,0,0,0,1259.74,478.7ZM1258,501.45h3.45V482.37H1258Zm10,0h3.46V474.74h-3.46Zm27.3-9.43c0-5.87-3.92-9.83-9.43-9.83a9.35,9.35,0,0,0-9.58,9.72c0,5.69,4.11,9.76,10.26,9.76a9.58,9.58,0,0,0,7.53-3.1l-1.91-2.23a7.13,7.13,0,0,1-5.51,2.3c-3.78,0-6.48-2.23-6.91-5.58h15.48C1295.32,492.74,1295.36,492.31,1295.36,492Zm-9.43-6.91a6,6,0,0,1,6.12,5.47h-12.24A6,6,0,0,1,1285.93,485.11Zm38.59-2.74v3a8.13,8.13,0,0,0-6.81-3.21,9.26,9.26,0,0,0-9.65,9.72c0,5.87,4.07,9.76,9.65,9.76a8.15,8.15,0,0,0,6.66-3.1v9.87h3.46V482.37ZM1318,498.64c-3.67,0-6.44-2.66-6.44-6.73a6.3,6.3,0,0,1,6.44-6.69c3.64,0,6.41,2.66,6.41,6.69S1321.64,498.64,1318,498.64Zm30.69-16.27v9.87c0,4.1-2.3,6.33-5.9,6.33-3.28,0-5.15-1.87-5.15-5.61V482.37h-3.45v11c0,5.62,3.27,8.32,8.2,8.32a7.76,7.76,0,0,0,6.48-3.1v2.88h3.28V482.37Zm11.77-3.67a2.25,2.25,0,1,0-2.34-2.23A2.26,2.26,0,0,0,1360.46,478.7Zm-1.73,22.75h3.46V482.37h-3.46Zm29.37-3.6a4.32,4.32,0,0,1-2.7.9c-1.91,0-3-1.15-3-3.2V485.22h5.47v-2.85h-5.47V478.2H1379v4.17h-3.24v2.85H1379v10.47c0,3.85,2.19,6,6,6a6.52,6.52,0,0,0,4.18-1.33ZM1410,492c0-5.87-3.92-9.83-9.43-9.83a9.35,9.35,0,0,0-9.58,9.72c0,5.69,4.11,9.76,10.26,9.76a9.58,9.58,0,0,0,7.53-3.1l-1.91-2.23a7.13,7.13,0,0,1-5.51,2.3c-3.78,0-6.48-2.23-6.91-5.58h15.48C1409.93,492.74,1410,492.31,1410,492Zm-9.43-6.91a6,6,0,0,1,6.12,5.47h-12.24A6,6,0,0,1,1400.54,485.11ZM940.33,526.19a8.13,8.13,0,0,0-6.81,3.21v-3h-3.31v26.07h3.46v-9.87a8.15,8.15,0,0,0,6.66,3.1c5.58,0,9.64-3.89,9.64-9.76S945.91,526.19,940.33,526.19ZM940,542.64c-3.64,0-6.41-2.66-6.41-6.73s2.77-6.69,6.41-6.69a6.3,6.3,0,0,1,6.44,6.69C946.48,540,943.71,542.64,940,542.64ZM972,536c0-5.87-3.92-9.83-9.43-9.83a9.34,9.34,0,0,0-9.57,9.72c0,5.69,4.1,9.76,10.26,9.76a9.57,9.57,0,0,0,7.52-3.1l-1.91-2.23a7.1,7.1,0,0,1-5.51,2.3c-3.78,0-6.48-2.23-6.91-5.58h15.48A9.56,9.56,0,0,0,972,536Zm-9.43-6.91a6,6,0,0,1,6.12,5.47H956.44A6,6,0,0,1,962.56,529.11Zm17.54.47v-3.21h-3.31v19.08h3.46V536c0-4.18,2.3-6.45,6-6.45a5.5,5.5,0,0,1,.79,0v-3.35C983.7,526.19,981.33,527.34,980.1,529.58Zm35.08-3.39a8.59,8.59,0,0,0-7.34,3.53c-1.26-2.38-3.71-3.53-6.63-3.53a7.73,7.73,0,0,0-6.59,3v-2.85h-3.31v19.08h3.46v-9.83c0-4.14,2.27-6.33,5.72-6.33,3.13,0,4.93,1.83,4.93,5.58v10.58h3.46v-9.83c0-4.14,2.27-6.33,5.72-6.33,3.14,0,4.94,1.83,4.94,5.58v10.58H1023v-11C1023,528.86,1019.82,526.19,1015.18,526.19ZM1046.7,536c0-5.87-3.92-9.83-9.43-9.83a9.35,9.35,0,0,0-9.58,9.72c0,5.69,4.11,9.76,10.26,9.76a9.58,9.58,0,0,0,7.53-3.1l-1.91-2.23a7.13,7.13,0,0,1-5.51,2.3c-3.78,0-6.48-2.23-6.91-5.58h15.48C1046.66,536.74,1046.7,536.31,1046.7,536Zm-9.43-6.91a6,6,0,0,1,6.12,5.47h-12.24A6,6,0,0,1,1037.27,529.11Zm23.88,12.74a4.32,4.32,0,0,1-2.7.9c-1.91,0-3-1.15-3-3.2V529.22h5.47v-2.85h-5.47V522.2H1052v4.17h-3.24v2.85H1052v10.47c0,3.85,2.2,6,6,6a6.54,6.54,0,0,0,4.18-1.33Zm29.47-23.11v10.51a8.13,8.13,0,0,0-6.66-3.06,9.26,9.26,0,0,0-9.65,9.72c0,5.83,4.07,9.76,9.65,9.76a8.05,8.05,0,0,0,6.8-3.24v3h3.31V518.74Zm-6.37,23.9c-3.68,0-6.45-2.66-6.45-6.73s2.77-6.69,6.45-6.69,6.4,2.62,6.4,6.69S1087.88,542.64,1084.25,542.64Zm33.61-6.62c0-5.87-3.93-9.83-9.44-9.83a9.35,9.35,0,0,0-9.57,9.72c0,5.69,4.1,9.76,10.26,9.76a9.56,9.56,0,0,0,7.52-3.1l-1.91-2.23a7.09,7.09,0,0,1-5.5,2.3c-3.78,0-6.48-2.23-6.92-5.58h15.48A9.65,9.65,0,0,0,1117.86,536Zm-9.44-6.91a6,6,0,0,1,6.12,5.47H1102.3A6,6,0,0,1,1108.42,529.11Zm32.22,16.56a8.54,8.54,0,0,0,7.78-4.11l-2.63-1.65a6,6,0,0,1-5.19,2.73,6.71,6.71,0,0,1,0-13.42,6,6,0,0,1,5.19,2.73l2.63-1.69c-1.52-2.66-4.36-4.07-7.78-4.07-5.87,0-10.08,4-10.08,9.72S1134.77,545.67,1140.64,545.67Zm15.56-16.09v-3.21h-3.31v19.08h3.46V536c0-4.18,2.3-6.45,6-6.45a5.5,5.5,0,0,1,.79,0v-3.35C1159.8,526.19,1157.43,527.34,1156.2,529.58Zm25.4-10.66h-4.39l-4.9,4.68h3.24Zm2.88,17.1c0-5.87-3.93-9.83-9.43-9.83a9.35,9.35,0,0,0-9.58,9.72c0,5.69,4.1,9.76,10.26,9.76a9.54,9.54,0,0,0,7.52-3.1l-1.9-2.23a7.13,7.13,0,0,1-5.51,2.3c-3.78,0-6.48-2.23-6.91-5.58h15.48C1184.44,536.74,1184.48,536.31,1184.48,536Zm-9.43-6.91a6,6,0,0,1,6.12,5.47h-12.24A5.94,5.94,0,0,1,1175.05,529.11Zm31.47,6.91c0-5.87-3.92-9.83-9.43-9.83a9.35,9.35,0,0,0-9.58,9.72c0,5.69,4.11,9.76,10.26,9.76a9.58,9.58,0,0,0,7.53-3.1l-1.91-2.23a7.13,7.13,0,0,1-5.51,2.3c-3.78,0-6.48-2.23-6.91-5.58h15.48C1206.48,536.74,1206.52,536.31,1206.52,536Zm-9.43-6.91a6,6,0,0,1,6.12,5.47H1191A6,6,0,0,1,1197.09,529.11Zm17.54.47v-3.21h-3.31v19.08h3.46V536c0-4.18,2.3-6.45,6-6.45a5.5,5.5,0,0,1,.79,0v-3.35C1218.23,526.19,1215.86,527.34,1214.63,529.58ZM1253,536c0-5.87-3.93-9.83-9.43-9.83a9.35,9.35,0,0,0-9.58,9.72c0,5.69,4.1,9.76,10.26,9.76a9.54,9.54,0,0,0,7.52-3.1l-1.9-2.23a7.13,7.13,0,0,1-5.51,2.3c-3.78,0-6.48-2.23-6.91-5.58h15.48C1253,536.74,1253,536.31,1253,536Zm-9.43-6.91a6,6,0,0,1,6.12,5.47h-12.24A5.94,5.94,0,0,1,1243.57,529.11Zm23.87,12.74a4.32,4.32,0,0,1-2.7.9c-1.9,0-3-1.15-3-3.2V529.22h5.47v-2.85h-5.47V522.2h-3.46v4.17h-3.24v2.85h3.24v10.47c0,3.85,2.2,6,6,6a6.49,6.49,0,0,0,4.17-1.33Zm29.47-23.11v10.51a8.12,8.12,0,0,0-6.66-3.06c-5.58,0-9.64,3.89-9.64,9.72s4.06,9.76,9.64,9.76a8.07,8.07,0,0,0,6.81-3.24v3h3.31V518.74Zm-6.37,23.9c-3.67,0-6.44-2.66-6.44-6.73s2.77-6.69,6.44-6.69,6.41,2.62,6.41,6.69S1294.18,542.64,1290.54,542.64Zm17.23-24.12a2.36,2.36,0,0,0-2.41,2.45,2.28,2.28,0,0,0,1.51,2.23l-1.33,5.37h2.27l1.73-5a6.93,6.93,0,0,0,.57-2.56A2.32,2.32,0,0,0,1307.77,518.52Zm14.48,27.15a9.49,9.49,0,0,0,9.9-9.76c0-5.69-4.17-9.72-9.9-9.72s-9.93,4-9.93,9.72A9.52,9.52,0,0,0,1322.25,545.67Zm0-3c-3.67,0-6.44-2.66-6.44-6.73s2.77-6.69,6.44-6.69,6.41,2.62,6.41,6.69S1325.93,542.64,1322.25,542.64Zm18-13.06v-3.21h-3.32v19.08h3.46V536c0-4.18,2.3-6.45,6-6.45a5.43,5.43,0,0,1,.79,0v-3.35C1343.85,526.19,1341.47,527.34,1340.25,529.58Zm26-3.21v3a8.72,8.72,0,0,0-7-3.13c-5.51,0-9.69,3.71-9.69,9.22s4.18,9.25,9.69,9.25a8.72,8.72,0,0,0,6.87-2.95v1.51c0,4.32-2,6.41-6.55,6.41a11.58,11.58,0,0,1-7.34-2.49l-1.66,2.67c2.09,1.87,5.62,2.84,9.11,2.84,6.48,0,9.9-3.06,9.9-9.79V526.37Zm-6.66,15.27c-3.85,0-6.59-2.56-6.59-6.23s2.74-6.19,6.59-6.19,6.55,2.48,6.55,6.19S1363.41,541.64,1359.59,541.64Zm23.49-15.45a12.72,12.72,0,0,0-7.88,2.45l1.44,2.59a9.63,9.63,0,0,1,6-2.05c3.42,0,5.12,1.69,5.12,4.61v.68h-5.48c-5.68,0-7.66,2.52-7.66,5.58,0,3.31,2.73,5.62,7,5.62,3,0,5.11-1,6.27-2.74v2.52h3.27V533.93C1391.25,528.71,1388.3,526.19,1383.08,526.19Zm-.79,16.81c-2.63,0-4.21-1.18-4.21-3.09,0-1.62,1-2.95,4.39-2.95h5.33v2.66A5.53,5.53,0,0,1,1382.29,543Zm25.55-16.81a8.18,8.18,0,0,0-6.88,3.06v-2.88h-3.31v19.08h3.45v-9.83c0-4.14,2.38-6.33,6.05-6.33,3.28,0,5.15,1.83,5.15,5.58v10.58h3.46v-11C1415.76,528.86,1412.48,526.19,1407.84,526.19Zm16-3.49a2.25,2.25,0,1,0-2.34-2.23A2.26,2.26,0,0,0,1423.88,522.7Zm-1.73,22.75h3.46V526.37h-3.46Zm15.53.22c5.07,0,8.24-2.2,8.24-5.65,0-7.42-12.09-3.75-12.09-8.25,0-1.51,1.47-2.63,4.5-2.63a9.9,9.9,0,0,1,5.5,1.52l1.48-2.74a13.89,13.89,0,0,0-7-1.73c-4.89,0-7.95,2.31-7.95,5.73,0,7.59,12.06,3.88,12.06,8.17,0,1.62-1.34,2.59-4.54,2.59a12.3,12.3,0,0,1-6.7-2l-1.44,2.74A13.8,13.8,0,0,0,1437.68,545.67Zm29.81-9.65c0-5.87-3.93-9.83-9.44-9.83a9.35,9.35,0,0,0-9.57,9.72c0,5.69,4.1,9.76,10.26,9.76a9.56,9.56,0,0,0,7.52-3.1l-1.91-2.23a7.09,7.09,0,0,1-5.5,2.3c-3.78,0-6.48-2.23-6.92-5.58h15.48A9.65,9.65,0,0,0,1467.49,536Zm-9.44-6.91a6,6,0,0,1,6.12,5.47h-12.24A6,6,0,0,1,1458.05,529.11Zm17.55.47v-3.21h-3.32v19.08h3.46V536c0-4.18,2.3-6.45,6-6.45a5.43,5.43,0,0,1,.79,0v-3.35C1479.2,526.19,1476.82,527.34,1475.6,529.58ZM944.75,562.74v10.51a8.12,8.12,0,0,0-6.66-3.06c-5.58,0-9.64,3.89-9.64,9.72s4.06,9.76,9.64,9.76a8.07,8.07,0,0,0,6.81-3.24v3h3.31V562.74Zm-6.37,23.9c-3.67,0-6.44-2.66-6.44-6.73s2.77-6.69,6.44-6.69,6.41,2.62,6.41,6.69S942,586.64,938.38,586.64ZM972,580c0-5.87-3.92-9.83-9.43-9.83a9.34,9.34,0,0,0-9.57,9.72c0,5.69,4.1,9.76,10.26,9.76a9.57,9.57,0,0,0,7.52-3.1l-1.91-2.23a7.1,7.1,0,0,1-5.51,2.3c-3.78,0-6.48-2.23-6.91-5.58h15.48A9.56,9.56,0,0,0,972,580Zm-9.43-6.91a6,6,0,0,1,6.12,5.47H956.44A6,6,0,0,1,962.56,573.11Zm19.7,16.56c5.08,0,8.25-2.2,8.25-5.65,0-7.42-12.1-3.75-12.1-8.25,0-1.51,1.48-2.63,4.5-2.63a10,10,0,0,1,5.51,1.52l1.48-2.74a13.91,13.91,0,0,0-6.95-1.73c-4.9,0-8,2.31-8,5.73,0,7.59,12.06,3.88,12.06,8.17,0,1.62-1.33,2.59-4.53,2.59a12.28,12.28,0,0,1-6.7-2l-1.44,2.74C976,588.7,979.1,589.67,982.26,589.67Zm36.6-26.75h-4.39l-4.9,4.68h3.24Zm2.88,17.1c0-5.87-3.92-9.83-9.43-9.83a9.35,9.35,0,0,0-9.58,9.72c0,5.69,4.11,9.76,10.26,9.76a9.58,9.58,0,0,0,7.53-3.1l-1.91-2.23a7.13,7.13,0,0,1-5.51,2.3c-3.78,0-6.48-2.23-6.91-5.58h15.48C1021.7,580.74,1021.74,580.31,1021.74,580Zm-9.43-6.91a6,6,0,0,1,6.12,5.47h-12.24A6,6,0,0,1,1012.31,573.11Zm27.38-2.74-6.7,15.3-6.55-15.3h-3.6l8.35,19.08h3.53l8.35-19.08ZM1063,580c0-5.87-3.92-9.83-9.43-9.83a9.34,9.34,0,0,0-9.57,9.72c0,5.69,4.1,9.76,10.26,9.76a9.57,9.57,0,0,0,7.52-3.1l-1.91-2.23a7.1,7.1,0,0,1-5.51,2.3c-3.78,0-6.48-2.23-6.91-5.58h15.48A9.56,9.56,0,0,0,1063,580Zm-9.43-6.91a6,6,0,0,1,6.12,5.47h-12.24A6,6,0,0,1,1053.58,573.11Zm24.42-2.92a8.21,8.21,0,0,0-6.88,3.06v-2.88h-3.31v19.08h3.46v-9.83c0-4.14,2.37-6.33,6-6.33,3.27,0,5.14,1.83,5.14,5.58v10.58h3.46v-11C1085.92,572.86,1082.64,570.19,1078,570.19Zm31.67,9.83c0-5.87-3.93-9.83-9.44-9.83a9.35,9.35,0,0,0-9.57,9.72c0,5.69,4.1,9.76,10.26,9.76a9.56,9.56,0,0,0,7.52-3.1l-1.91-2.23a7.09,7.09,0,0,1-5.5,2.3c-3.78,0-6.48-2.23-6.92-5.58h15.48A9.65,9.65,0,0,0,1109.67,580Zm-9.44-6.91a6,6,0,0,1,6.12,5.47h-12.24A6,6,0,0,1,1100.23,573.11Zm38.1-2.92a8.59,8.59,0,0,0-7.34,3.53c-1.26-2.38-3.71-3.53-6.63-3.53a7.7,7.7,0,0,0-6.58,3v-2.85h-3.32v19.08h3.46v-9.83c0-4.14,2.27-6.33,5.72-6.33,3.14,0,4.94,1.83,4.94,5.58v10.58H1132v-9.83c0-4.14,2.27-6.33,5.73-6.33,3.13,0,4.93,1.83,4.93,5.58v10.58h3.45v-11C1146.14,572.86,1143,570.19,1138.33,570.19Zm31.52,9.83c0-5.87-3.92-9.83-9.43-9.83a9.35,9.35,0,0,0-9.58,9.72c0,5.69,4.11,9.76,10.26,9.76a9.58,9.58,0,0,0,7.53-3.1l-1.91-2.23a7.12,7.12,0,0,1-5.51,2.3c-3.78,0-6.48-2.23-6.91-5.58h15.48A9.56,9.56,0,0,0,1169.85,580Zm-9.43-6.91a6,6,0,0,1,6.12,5.47H1154.3A6,6,0,0,1,1160.42,573.11Zm24.42-2.92a8.21,8.21,0,0,0-6.88,3.06v-2.88h-3.31v19.08h3.46v-9.83c0-4.14,2.37-6.33,6.05-6.33,3.27,0,5.14,1.83,5.14,5.58v10.58h3.46v-11C1192.76,572.86,1189.48,570.19,1184.84,570.19Zm24,15.66a4.32,4.32,0,0,1-2.7.9c-1.9,0-3-1.15-3-3.2V573.22h5.47v-2.85h-5.47V566.2h-3.46v4.17h-3.24v2.85h3.24v10.47c0,3.85,2.2,6,6,6a6.49,6.49,0,0,0,4.17-1.33Zm10.73,3.82c5.08,0,8.25-2.2,8.25-5.65,0-7.42-12.1-3.75-12.1-8.25,0-1.51,1.48-2.63,4.5-2.63a10,10,0,0,1,5.51,1.52l1.48-2.74a13.91,13.91,0,0,0-7-1.73c-4.9,0-8,2.31-8,5.73,0,7.59,12.06,3.88,12.06,8.17,0,1.62-1.33,2.59-4.53,2.59a12.28,12.28,0,0,1-6.7-2l-1.44,2.74C1213.23,588.7,1216.37,589.67,1219.53,589.67ZM1242,581.5h2.73l.69-17.25h-4.07Zm1.4,8.17a2.28,2.28,0,0,0,2.3-2.31,2.25,2.25,0,0,0-2.3-2.3,2.29,2.29,0,0,0-2.38,2.3A2.32,2.32,0,0,0,1243.35,589.67ZM955,633.7a6,6,0,0,1-4.61,2.16c-1.62,0-3.13-.72-4.82-2.52a12.51,12.51,0,0,0,9.9-12.49c0-7.41-5.69-12.89-13.36-12.89s-13.43,5.51-13.43,12.89c0,7.09,5.26,12.46,12.49,12.85,3.53,3.64,6,5,9.18,5a8.15,8.15,0,0,0,6.34-3Zm-22.72-12.85a9.8,9.8,0,1,1,9.83,9.69A9.5,9.5,0,0,1,932.26,620.85Zm42.51-6.48v9.87c0,4.1-2.3,6.33-5.9,6.33-3.28,0-5.15-1.87-5.15-5.61V614.37h-3.46v11c0,5.62,3.28,8.32,8.21,8.32a7.76,7.76,0,0,0,6.48-3.1v2.88h3.28V614.37Zm10.9-7.85a2.35,2.35,0,0,0-2.41,2.45,2.28,2.28,0,0,0,1.51,2.23l-1.33,5.37h2.27l1.73-5A7.14,7.14,0,0,0,988,609,2.32,2.32,0,0,0,985.67,606.52Zm9,4.18a2.25,2.25,0,1,0-2.34-2.23A2.26,2.26,0,0,0,994.69,610.7ZM993,633.45h3.46V614.37H993Zm10.06,0h3.46V606.74H1003Zm15.53.22c5.07,0,8.24-2.2,8.24-5.65,0-7.42-12.1-3.75-12.1-8.25,0-1.51,1.48-2.63,4.5-2.63a9.93,9.93,0,0,1,5.51,1.52l1.48-2.74a13.91,13.91,0,0,0-7-1.73c-4.9,0-8,2.31-8,5.73,0,7.59,12.06,3.88,12.06,8.17,0,1.62-1.33,2.59-4.53,2.59a12.28,12.28,0,0,1-6.7-2l-1.44,2.74A13.8,13.8,0,0,0,1018.55,633.67Zm27.7,0c5.07,0,8.24-2.2,8.24-5.65,0-7.42-12.09-3.75-12.09-8.25,0-1.51,1.47-2.63,4.5-2.63a9.9,9.9,0,0,1,5.5,1.52l1.48-2.74a13.89,13.89,0,0,0-7-1.73c-4.89,0-8,2.31-8,5.73,0,7.59,12.06,3.88,12.06,8.17,0,1.62-1.34,2.59-4.54,2.59a12.3,12.3,0,0,1-6.7-2l-1.44,2.74A13.8,13.8,0,0,0,1046.25,633.67Zm20.73,0a9.49,9.49,0,0,0,9.9-9.76c0-5.69-4.17-9.72-9.9-9.72s-9.93,4-9.93,9.72A9.52,9.52,0,0,0,1067,633.67Zm0-3c-3.67,0-6.44-2.66-6.44-6.73s2.77-6.69,6.44-6.69,6.41,2.62,6.41,6.69S1070.66,630.64,1067,630.64Zm16.41-19.94a2.25,2.25,0,1,0-2.34-2.23A2.26,2.26,0,0,0,1083.39,610.7Zm-1.73,22.75h3.46V614.37h-3.46ZM1109,624c0-5.87-3.92-9.83-9.43-9.83a9.35,9.35,0,0,0-9.58,9.72c0,5.69,4.11,9.76,10.26,9.76a9.58,9.58,0,0,0,7.53-3.1l-1.91-2.23a7.12,7.12,0,0,1-5.51,2.3c-3.78,0-6.48-2.23-6.91-5.58h15.48A9.56,9.56,0,0,0,1109,624Zm-9.43-6.91a6,6,0,0,1,6.12,5.47h-12.24A6,6,0,0,1,1099.53,617.11Zm24.42-2.92a8.21,8.21,0,0,0-6.88,3.06v-2.88h-3.31v19.08h3.46v-9.83c0-4.14,2.37-6.33,6-6.33,3.27,0,5.14,1.83,5.14,5.58v10.58h3.46v-11C1131.87,616.86,1128.59,614.19,1124,614.19Zm24,15.66a4.32,4.32,0,0,1-2.7.9c-1.9,0-3-1.15-3-3.2V617.22h5.47v-2.85h-5.47V610.2h-3.46v4.17h-3.24v2.85h3.24v10.47c0,3.85,2.2,6,6,6a6.49,6.49,0,0,0,4.17-1.33Zm23.1,3.82a9.49,9.49,0,0,0,9.9-9.76c0-5.69-4.17-9.72-9.9-9.72s-9.93,4-9.93,9.72A9.52,9.52,0,0,0,1171,633.67Zm0-3c-3.67,0-6.44-2.66-6.44-6.73s2.77-6.69,6.44-6.69,6.41,2.62,6.41,6.69S1174.68,630.64,1171,630.64Zm29-16.27v9.87c0,4.1-2.31,6.33-5.91,6.33-3.27,0-5.14-1.87-5.14-5.61V614.37h-3.46v11c0,5.62,3.28,8.32,8.21,8.32a7.77,7.77,0,0,0,6.48-3.1v2.88h3.27V614.37Zm23.53,0-6.69,15.3-6.55-15.3h-3.6l8.35,19.08h3.53l8.35-19.08Zm23.33,9.65c0-5.87-3.92-9.83-9.43-9.83a9.35,9.35,0,0,0-9.58,9.72c0,5.69,4.11,9.76,10.26,9.76a9.58,9.58,0,0,0,7.53-3.1l-1.91-2.23a7.13,7.13,0,0,1-5.51,2.3c-3.78,0-6.48-2.23-6.91-5.58h15.48C1246.84,624.74,1246.88,624.31,1246.88,624Zm-9.43-6.91a6,6,0,0,1,6.12,5.47h-12.24A6,6,0,0,1,1237.45,617.11Zm17.54.47v-3.21h-3.31v19.08h3.46V624c0-4.18,2.3-6.45,6-6.45a5.5,5.5,0,0,1,.79,0v-3.35C1258.59,614.19,1256.22,615.34,1255,617.58Zm21.63,12.27a4.32,4.32,0,0,1-2.7.9c-1.91,0-3-1.15-3-3.2V617.22h5.47v-2.85h-5.47V610.2h-3.45v4.17h-3.24v2.85h3.24v10.47c0,3.85,2.19,6,6,6a6.52,6.52,0,0,0,4.18-1.33Zm21.87-15.66a12.72,12.72,0,0,0-7.88,2.45l1.44,2.59a9.66,9.66,0,0,1,6-2.05c3.42,0,5.11,1.69,5.11,4.61v.68h-5.47c-5.69,0-7.67,2.52-7.67,5.58,0,3.31,2.74,5.62,7.06,5.62,3,0,5.11-1,6.26-2.74v2.52h3.28V621.93C1306.67,616.71,1303.71,614.19,1298.49,614.19ZM1297.7,631c-2.63,0-4.21-1.18-4.21-3.09,0-1.62,1-2.95,4.39-2.95h5.33v2.66A5.53,5.53,0,0,1,1297.7,631Zm29.69-16.63v9.87c0,4.1-2.3,6.33-5.9,6.33-3.28,0-5.15-1.87-5.15-5.61V614.37h-3.46v11c0,5.62,3.28,8.32,8.21,8.32a7.76,7.76,0,0,0,6.48-3.1v2.88h3.28V614.37Zm29.82-.18a8.09,8.09,0,0,0-6.8,3.21v-3h-3.32v26.07h3.46v-9.87a8.15,8.15,0,0,0,6.66,3.1c5.58,0,9.65-3.89,9.65-9.76A9.26,9.26,0,0,0,1357.21,614.19Zm-.29,16.45c-3.63,0-6.41-2.66-6.41-6.73a6.44,6.44,0,1,1,12.86,0C1363.37,628,1360.59,630.64,1356.92,630.64Zm29-16.27v9.87c0,4.1-2.3,6.33-5.9,6.33-3.28,0-5.15-1.87-5.15-5.61V614.37h-3.46v11c0,5.62,3.28,8.32,8.21,8.32a7.76,7.76,0,0,0,6.48-3.1v2.88h3.28V614.37Zm20.15-.18a8.13,8.13,0,0,0-6.66,3.06V606.74H1396v26.71h3.31v-3a8.05,8.05,0,0,0,6.8,3.24c5.58,0,9.65-3.93,9.65-9.76A9.26,9.26,0,0,0,1406.11,614.19Zm-.29,16.45c-3.63,0-6.4-2.66-6.4-6.73s2.77-6.69,6.4-6.69,6.45,2.62,6.45,6.69S1409.5,630.64,1405.82,630.64Zm14.71,2.81H1424V606.74h-3.46Zm11.79-22.75a2.25,2.25,0,1,0-2.34-2.23A2.26,2.26,0,0,0,1432.32,610.7Zm-1.73,22.75h3.46V614.37h-3.46Zm18.37.22a8.54,8.54,0,0,0,7.78-4.11l-2.63-1.65a6,6,0,0,1-5.19,2.73,6.71,6.71,0,0,1,0-13.42,6,6,0,0,1,5.19,2.73l2.63-1.69c-1.52-2.66-4.36-4.07-7.78-4.07-5.87,0-10.08,4-10.08,9.72S1443.09,633.67,1449,633.67Zm-510.58,44a9.49,9.49,0,0,0,9.9-9.76c0-5.69-4.17-9.72-9.9-9.72s-9.93,4-9.93,9.72A9.52,9.52,0,0,0,938.38,677.67Zm0-3c-3.67,0-6.44-2.66-6.44-6.73s2.77-6.69,6.44-6.69,6.41,2.62,6.41,6.69S942.05,674.64,938.38,674.64Zm29-16.27v9.87c0,4.1-2.3,6.33-5.9,6.33-3.28,0-5.15-1.87-5.15-5.61V658.37h-3.46v11c0,5.62,3.28,8.32,8.21,8.32a7.76,7.76,0,0,0,6.48-3.1v2.88h3.28V658.37Zm23,3.21v-3.21h-3.32v19.08h3.46V668c0-4.18,2.3-6.45,6-6.45a5.43,5.43,0,0,1,.79,0v-3.35C994,658.19,991.63,659.34,990.41,661.58Zm28.27,6.44c0-5.87-3.92-9.83-9.43-9.83a9.35,9.35,0,0,0-9.58,9.72c0,5.69,4.11,9.76,10.26,9.76a9.58,9.58,0,0,0,7.53-3.1l-1.91-2.23a7.12,7.12,0,0,1-5.51,2.3c-3.78,0-6.48-2.23-6.91-5.58h15.48A9.56,9.56,0,0,0,1018.68,668Zm-9.43-6.91a6,6,0,0,1,6.12,5.47h-12.24A6,6,0,0,1,1009.25,661.11Zm19.7,16.56c5.08,0,8.25-2.2,8.25-5.65,0-7.42-12.1-3.75-12.1-8.25,0-1.51,1.48-2.63,4.5-2.63a10,10,0,0,1,5.51,1.52l1.47-2.74a13.85,13.85,0,0,0-6.94-1.73c-4.9,0-8,2.31-8,5.73,0,7.59,12.06,3.88,12.06,8.17,0,1.62-1.33,2.59-4.54,2.59a12.27,12.27,0,0,1-6.69-2l-1.44,2.74C1022.65,676.7,1025.78,677.67,1029,677.67Zm22.21-3.82a4.32,4.32,0,0,1-2.7.9c-1.9,0-3-1.15-3-3.2V661.22H1051v-2.85h-5.47V654.2H1042v4.17h-3.24v2.85H1042v10.47c0,3.85,2.2,6,6,6a6.49,6.49,0,0,0,4.17-1.33Zm8.57-12.27v-3.21h-3.31v19.08h3.46V668c0-4.18,2.3-6.45,6-6.45a5.5,5.5,0,0,1,.79,0v-3.35C1063.33,658.19,1061,659.34,1059.73,661.58ZM1088,668c0-5.87-3.92-9.83-9.43-9.83a9.35,9.35,0,0,0-9.58,9.72c0,5.69,4.11,9.76,10.26,9.76a9.58,9.58,0,0,0,7.53-3.1l-1.91-2.23a7.13,7.13,0,0,1-5.51,2.3c-3.78,0-6.48-2.23-6.91-5.58h15.48C1088,668.74,1088,668.31,1088,668Zm-9.43-6.91a6,6,0,0,1,6.12,5.47h-12.24A6,6,0,0,1,1078.58,661.11Zm16-6.41a2.27,2.27,0,0,0,2.34-2.3,2.24,2.24,0,0,0-2.34-2.2,2.27,2.27,0,0,0-2.34,2.27A2.24,2.24,0,0,0,1094.54,654.7Zm-1.73,22.75h3.45V658.37h-3.45Zm20.24-19.26a8.21,8.21,0,0,0-6.88,3.06v-2.88h-3.31v19.08h3.46v-9.83c0-4.14,2.37-6.33,6-6.33,3.27,0,5.14,1.83,5.14,5.58v10.58H1121v-11C1121,660.86,1117.69,658.19,1113.05,658.19Zm24,15.66a4.32,4.32,0,0,1-2.7.9c-1.9,0-3-1.15-3-3.2V661.22h5.47v-2.85h-5.47V654.2h-3.46v4.17h-3.24v2.85h3.24v10.47c0,3.85,2.2,6,6.05,6a6.49,6.49,0,0,0,4.17-1.33Zm21.88-15.66a12.75,12.75,0,0,0-7.89,2.45l1.44,2.59a9.66,9.66,0,0,1,6-2.05c3.42,0,5.11,1.69,5.11,4.61v.68h-5.47c-5.69,0-7.67,2.52-7.67,5.58,0,3.31,2.74,5.62,7.06,5.62,3,0,5.11-1,6.26-2.74v2.52h3.28V665.93C1167.06,660.71,1164.11,658.19,1158.89,658.19ZM1158.1,675c-2.63,0-4.22-1.18-4.22-3.09,0-1.62,1-2.95,4.4-2.95h5.32v2.66A5.51,5.51,0,0,1,1158.1,675Zm34.67-1.15a4.32,4.32,0,0,1-2.7.9c-1.91,0-3-1.15-3-3.2V661.22h5.48v-2.85h-5.48V654.2h-3.45v4.17h-3.24v2.85h3.24v10.47c0,3.85,2.19,6,6,6a6.51,6.51,0,0,0,4.17-1.33Zm12.8,3.82a9.5,9.5,0,0,0,9.9-9.76c0-5.69-4.18-9.72-9.9-9.72s-9.94,4-9.94,9.72A9.53,9.53,0,0,0,1205.57,677.67Zm0-3c-3.67,0-6.44-2.66-6.44-6.73s2.77-6.69,6.44-6.69,6.41,2.62,6.41,6.69S1209.24,674.64,1205.57,674.64Zm24.87-16.45a8.2,8.2,0,0,0-6.88,3.06v-2.88h-3.31v19.08h3.46v-9.83c0-4.14,2.37-6.33,6-6.33,3.28,0,5.15,1.83,5.15,5.58v10.58h3.46v-11C1238.36,660.86,1235.08,658.19,1230.44,658.19Zm32.3,19.48a8.52,8.52,0,0,0,7.77-4.11l-2.62-1.65a6,6,0,0,1-5.19,2.73,6.71,6.71,0,0,1,0-13.42,6,6,0,0,1,5.19,2.73l2.62-1.69c-1.51-2.66-4.35-4.07-7.77-4.07-5.87,0-10.08,4-10.08,9.72S1256.87,677.67,1262.74,677.67ZM1292,668c0-5.87-3.92-9.83-9.43-9.83a9.35,9.35,0,0,0-9.58,9.72c0,5.69,4.11,9.76,10.26,9.76a9.58,9.58,0,0,0,7.53-3.1l-1.91-2.23a7.13,7.13,0,0,1-5.51,2.3c-3.78,0-6.48-2.23-6.91-5.58h15.48C1291.91,668.74,1292,668.31,1292,668Zm-9.43-6.91a6,6,0,0,1,6.12,5.47H1276.4A6,6,0,0,1,1282.52,661.11Zm17.54.47v-3.21h-3.31v19.08h3.46V668c0-4.18,2.3-6.45,6-6.45a5.5,5.5,0,0,1,.79,0v-3.35C1303.66,658.19,1301.29,659.34,1300.06,661.58Zm19.35,16.09a8.54,8.54,0,0,0,7.78-4.11l-2.63-1.65a6,6,0,0,1-5.19,2.73,6.71,6.71,0,0,1,0-13.42,6,6,0,0,1,5.19,2.73l2.63-1.69c-1.52-2.66-4.36-4.07-7.78-4.07-5.87,0-10.08,4-10.08,9.72S1313.54,677.67,1319.41,677.67Zm12-.22h3.46V650.74h-3.46Zm27.3-9.43c0-5.87-3.92-9.83-9.43-9.83a9.35,9.35,0,0,0-9.58,9.72c0,5.69,4.11,9.76,10.26,9.76a9.58,9.58,0,0,0,7.53-3.1l-1.91-2.23a7.12,7.12,0,0,1-5.51,2.3c-3.78,0-6.48-2.23-6.91-5.58h15.48A9.56,9.56,0,0,0,1358.71,668Zm-9.43-6.91a6,6,0,0,1,6.12,5.47h-12.24A6,6,0,0,1,1349.28,661.11Zm34-2.92a8.13,8.13,0,0,0-6.81,3.21v-3h-3.31v26.07h3.46v-9.87a8.15,8.15,0,0,0,6.66,3.1c5.58,0,9.64-3.89,9.64-9.76S1388.88,658.19,1383.3,658.19Zm-.29,16.45c-3.64,0-6.41-2.66-6.41-6.73s2.77-6.69,6.41-6.69a6.3,6.3,0,0,1,6.44,6.69C1389.45,672,1386.68,674.64,1383,674.64Zm18-13.06v-3.21h-3.31v19.08h3.45V668c0-4.18,2.31-6.45,6-6.45a5.5,5.5,0,0,1,.79,0v-3.35C1404.63,658.19,1402.25,659.34,1401,661.58ZM1414,654.7a2.27,2.27,0,0,0,2.34-2.3,2.24,2.24,0,0,0-2.34-2.2,2.27,2.27,0,0,0-2.34,2.27A2.24,2.24,0,0,0,1414,654.7Zm-1.73,22.75h3.45V658.37h-3.45Zm23.55-19.08-6.69,15.3-6.56-15.3h-3.6l8.36,19.08h3.52l8.36-19.08Zm20.45-7.45h-4.39l-4.9,4.68h3.24Zm2.88,17.1c0-5.87-3.93-9.83-9.43-9.83a9.35,9.35,0,0,0-9.58,9.72c0,5.69,4.1,9.76,10.26,9.76a9.54,9.54,0,0,0,7.52-3.1l-1.9-2.23a7.13,7.13,0,0,1-5.51,2.3c-3.78,0-6.48-2.23-6.91-5.58h15.48C1459.08,668.74,1459.12,668.31,1459.12,668Zm-9.43-6.91a6,6,0,0,1,6.12,5.47h-12.24A5.94,5.94,0,0,1,1449.69,661.11Zm15.06,16.56a2.4,2.4,0,0,0,2.37-2.49,2.36,2.36,0,0,0-2.37-2.44,2.4,2.4,0,0,0-2.45,2.44A2.44,2.44,0,0,0,1464.75,677.67Z"/><path class="cls-2" d="M1032.77,274.55a54.68,54.68,0,0,0-8.53-11,55.53,55.53,0,0,0-11-8.54,54,54,0,0,0-12.94-5.49,52.76,52.76,0,0,0-14.41-1.94H931.5V383.47h27.2V356.26h27.2A52.68,52.68,0,0,0,1007,352a54.34,54.34,0,0,0,31.27-64.46A55.19,55.19,0,0,0,1032.77,274.55Zm-21.9,38A27.28,27.28,0,0,1,996.43,327a26,26,0,0,1-10.52,2.13H958.7V274.74h27.2a26.29,26.29,0,0,1,10.52,2.14,27.24,27.24,0,0,1,14.44,35.64Z"/><path class="cls-2" d="M1135.33,294.17a72.35,72.35,0,0,0-7.72-6.35,58,58,0,0,0-8.66-5.12,50.6,50.6,0,0,0-9.38-3.41,39.22,39.22,0,0,0-9.77-1.23,51.62,51.62,0,0,0-20.15,3.94,50.26,50.26,0,0,0-16.49,11,51.82,51.82,0,0,0-11.14,17,56.62,56.62,0,0,0-4.07,21.75,59.46,59.46,0,0,0,4.07,22.66,49.14,49.14,0,0,0,11.14,16.83,47.79,47.79,0,0,0,16.49,10.46,55.83,55.83,0,0,0,20.14,3.6,38.75,38.75,0,0,0,9.71-1.23,53.36,53.36,0,0,0,9.34-3.36,58.82,58.82,0,0,0,8.66-5,82.16,82.16,0,0,0,7.83-6.22l10.05,13.94h6.26V282.14h-6.26Zm-11.79,47.91a29.34,29.34,0,0,1-5.54,8.81,27.71,27.71,0,0,1-8.2,6.17,22.23,22.23,0,0,1-10,2.31,27.72,27.72,0,0,1-10-1.8,22.77,22.77,0,0,1-8.16-5.31,25.07,25.07,0,0,1-5.45-8.66,36.05,36.05,0,0,1,0-23.61,25.07,25.07,0,0,1,5.45-8.66,22.77,22.77,0,0,1,8.16-5.31,27.72,27.72,0,0,1,10-1.8,22.31,22.31,0,0,1,10,2.33,27.72,27.72,0,0,1,8.2,6.16,29.5,29.5,0,0,1,5.55,8.81A26.92,26.92,0,0,1,1123.54,342.08Z"/><path class="cls-2" d="M1200.33,285.22a45.23,45.23,0,0,0-14.22,8.76l-8.53-12h-6.25V383.47h25.87V327.54a19.47,19.47,0,0,1,19.35-19.62h23.1V282.14h-22.83A45.17,45.17,0,0,0,1200.33,285.22Z"/><path class="cls-2" d="M1283,241.56h-25.79v40.58h-12.6v25.78h12.6v30.14a44.22,44.22,0,0,0,3.56,17.62A45.87,45.87,0,0,0,1285,379.92a44,44,0,0,0,17.61,3.55h19.62V357.68h-19.62a19,19,0,0,1-7.68-1.56,20.06,20.06,0,0,1-6.24-4.22,19.5,19.5,0,0,1-4.17-6.21,19.21,19.21,0,0,1-1.51-7.63V307.92h39.23V282.14H1283Z"/><path class="cls-2" d="M1400.18,338.06a21.45,21.45,0,0,1-1.52,7.92,23.46,23.46,0,0,1-4.17,6.87,20.89,20.89,0,0,1-6.21,4.88,16,16,0,0,1-7.53,1.85,21.59,21.59,0,0,1-7.63-1.33,16.9,16.9,0,0,1-6.21-4,19.69,19.69,0,0,1-4.22-6.73,25.93,25.93,0,0,1-1.56-9.44V281.94h-25.78v56.12a51.85,51.85,0,0,0,3.56,19.67,42.81,42.81,0,0,0,24.21,24.32,46.81,46.81,0,0,0,17.62,3.31,23.07,23.07,0,0,0,8.86-1.8q4.41-1.8,8.66-3.6a28.28,28.28,0,0,1-3.7,6.5,25.68,25.68,0,0,1-5.25,5.16,25.08,25.08,0,0,1-6.5,3.41,22.08,22.08,0,0,1-7.3,1.24l-14.4-.19v26.06l13.27.19a50,50,0,0,0,20.09-4.07,53.51,53.51,0,0,0,16.44-11.09,52.5,52.5,0,0,0,11.14-16.4,51.24,51.24,0,0,0,4.18-20.09V281.94h-26.06Z"/><path class="cls-2" d="M1474.27,362.42a16.54,16.54,0,0,0-5.12-3.46,15.27,15.27,0,0,0-6.25-1.28,15.62,15.62,0,0,0-6.36,1.28,17,17,0,0,0-5.16,3.46,16.11,16.11,0,0,0-3.51,5.13,15.44,15.44,0,0,0-1.28,6.25,16.16,16.16,0,0,0,4.79,11.56,17,17,0,0,0,5.16,3.46,16,16,0,0,0,6.36,1.28,15.44,15.44,0,0,0,6.25-1.28,16.2,16.2,0,0,0,8.59-8.63,16.15,16.15,0,0,0,1.28-6.4,15.69,15.69,0,0,0-1.28-6.26A16.64,16.64,0,0,0,1474.27,362.42Z"/><path class="cls-2" d="M1473.32,349.91l5.88-102.37h-32.79l5.78,102.37Z"/></g></g></svg>