<svg xmlns="http://www.w3.org/2000/svg" viewBox="0 0 1896.54 625.84"><defs><style>.cls-1{fill:#fff;}</style></defs><g id="Calque_2" data-name="Calque 2"><g id="Calque_1-2" data-name="Calque 1"><g id="Groupe_10425" data-name="Groupe 10425"><path id="Tracé_1095" data-name="Tracé 1095" class="cls-1" d="M350.66,114.21A189,189,0,0,0,321.12,76,191.34,191.34,0,0,0,283,46.44a187.07,187.07,0,0,0-44.79-19,183.65,183.65,0,0,0-49.89-6.73H0V491.28H94.19V397.1h94.17a182.53,182.53,0,0,0,73-14.77,188.11,188.11,0,0,0,108.3-223.16A190.79,190.79,0,0,0,350.66,114.21ZM274.84,245.65a94.42,94.42,0,0,1-50,50.21,90.69,90.69,0,0,1-36.43,7.38H94.19V114.87h94.17a90.9,90.9,0,0,1,36.43,7.38,94.32,94.32,0,0,1,50,123.4Z"/><path id="Tracé_1096" data-name="Tracé 1096" class="cls-1" d="M705.82,182.14a248.15,248.15,0,0,0-26.74-22,202.58,202.58,0,0,0-30-17.73,175.23,175.23,0,0,0-32.48-11.81,136.28,136.28,0,0,0-33.81-4.26A179.24,179.24,0,0,0,513,140a173.89,173.89,0,0,0-57.1,38.23,179.17,179.17,0,0,0-38.56,58.9,196.05,196.05,0,0,0-14.11,75.32q0,44,14.11,78.45a169.91,169.91,0,0,0,38.56,58.25A165.61,165.61,0,0,0,513,485.38a194,194,0,0,0,69.74,12.47,134.43,134.43,0,0,0,33.64-4.27,183.07,183.07,0,0,0,32.32-11.65,200,200,0,0,0,30-17.4A287.4,287.4,0,0,0,705.82,443l34.8,48.24h21.65V140.46H740.62ZM665,348a102.05,102.05,0,0,1-19.2,30.51,95.62,95.62,0,0,1-28.39,21.34,77,77,0,0,1-34.62,8,95.62,95.62,0,0,1-34.62-6.23,78.9,78.9,0,0,1-28.23-18.37,86.3,86.3,0,0,1-18.87-30,124.69,124.69,0,0,1,0-81.72,86.3,86.3,0,0,1,18.87-30,78.93,78.93,0,0,1,28.23-18.38,96.06,96.06,0,0,1,34.62-6.24A77,77,0,0,1,617.38,225a95.58,95.58,0,0,1,28.39,21.33A102.23,102.23,0,0,1,665,276.82,93.46,93.46,0,0,1,665,348Z"/><path id="Tracé_1097" data-name="Tracé 1097" class="cls-1" d="M930.88,151.13a156.41,156.41,0,0,0-49.22,30.35L852.12,139.8H830.47V491.28h89.58V297.66a67.47,67.47,0,0,1,67-67.94h80V140.46H988A157.06,157.06,0,0,0,930.88,151.13Z"/><path id="Tracé_1098" data-name="Tracé 1098" class="cls-1" d="M1217,0h-89.28V140.46h-43.64v89.26h43.64V334.09a152.83,152.83,0,0,0,12.31,61A158.74,158.74,0,0,0,1223.89,479a152.83,152.83,0,0,0,61,12.31h67.94V402h-67.94a66,66,0,0,1-26.59-5.4A69.27,69.27,0,0,1,1236.68,382a67.29,67.29,0,0,1-14.43-21.49,66.43,66.43,0,0,1-5.25-26.42V229.72h135.87V140.46H1217Z"/><path id="Tracé_1099" data-name="Tracé 1099" class="cls-1" d="M1622.9,334.09a73.92,73.92,0,0,1-5.25,27.41,81.18,81.18,0,0,1-14.44,23.79,73.09,73.09,0,0,1-21.49,16.9,55.65,55.65,0,0,1-26.09,6.4,74.89,74.89,0,0,1-26.42-4.6,58.1,58.1,0,0,1-21.49-13.94,67.72,67.72,0,0,1-14.61-23.3,89.94,89.94,0,0,1-5.41-32.66V139.8h-89.26V334.09a179.8,179.8,0,0,0,12.3,68.1,148.33,148.33,0,0,0,83.85,84.17,162,162,0,0,0,61,11.49,80.77,80.77,0,0,0,30.68-6.23q15.26-6.24,30-12.48a97.6,97.6,0,0,1-12.8,22.49,88.69,88.69,0,0,1-18.21,17.88,86.64,86.64,0,0,1-22.49,11.81,75.74,75.74,0,0,1-25.27,4.27l-49.89-.65v90.24l45.95.66a172.93,172.93,0,0,0,69.57-14.11,184.08,184.08,0,0,0,56.93-38.4,180.68,180.68,0,0,0,38.57-56.77A177.13,177.13,0,0,0,1713.12,447V139.8h-90.25Z"/><path id="Tracé_1100" data-name="Tracé 1100" class="cls-1" d="M1879.47,418.43a57.06,57.06,0,0,0-17.73-12,53.6,53.6,0,0,0-21.66-4.44,54.48,54.48,0,0,0-22,4.44,59,59,0,0,0-17.88,12,55.39,55.39,0,0,0-12.15,17.73,53.58,53.58,0,0,0-4.42,21.66,55.69,55.69,0,0,0,16.57,40,59.34,59.34,0,0,0,17.88,12,54.84,54.84,0,0,0,22,4.42,53.92,53.92,0,0,0,21.66-4.42,57.35,57.35,0,0,0,17.73-12,56.71,56.71,0,0,0,12-17.89,55.78,55.78,0,0,0,4.43-22.15,53.76,53.76,0,0,0-4.43-21.66A57,57,0,0,0,1879.47,418.43Z"/><path id="Tracé_1101" data-name="Tracé 1101" class="cls-1" d="M1876.19,375.11l20.35-354.44H1783l20,354.44Z"/></g></g></g></svg>