<svg xmlns="http://www.w3.org/2000/svg" viewBox="0 0 1152 1152"><defs><style>.cls-1{fill:#fff;}</style></defs><g id="Calque_2" data-name="Calque 2"><g id="Calque_1-2" data-name="Calque 1"><g id="Calque_2-2" data-name="Calque 2"><g id="Calque_1-2-2" data-name="Calque 1-2"><g id="Calque_2-2-2" data-name="Calque 2-2"><g id="Calque_1-2-2-2" data-name="Calque 1-2-2"><circle id="Ellipse_1-16" data-name="Ellipse 1-16" class="cls-1" cx="576" cy="576" r="576"/><path d="M226.6,443a14,14,0,0,0,12,11.4c81.3,9.6,206.5,15.4,339.1,15.4,131.1,0,255.3-5.7,336.7-15.1A14,14,0,0,0,926.5,443c6.3-37.2,23.2-63.3,45.8-71.4a14.1,14.1,0,0,0,9.2-16.9C922.7,131.7,694.2-1.4,471.1,57.5A417.78,417.78,0,0,0,173.7,355.6a14,14,0,0,0,8.7,16.6C204.1,381.1,220.2,406.8,226.6,443ZM752.3,141.4c13.2-13.6,48.6-.6,79.2,29.1s44.9,64.7,31.7,78.3-48.7.5-79.3-29.1-44.8-64.9-31.6-78.4v.1Z"/><path d="M253.7,774.2V517.7a31,31,0,0,0-27.3-30.8c-9.4-1.1-18-2.4-26-3.7h0c0-42.8-14.6-77.5-32.7-77.5S135,440.5,135,483.2c0,25.3,20.1,124.2,29.2,167.9,2.2,10.8,3.6,21.7,5.4,32.5C175.3,717.7,205.9,748.9,253.7,774.2ZM162.8,483.7c-3.6,0-6.3-8.4-6.3-19s3-19,6.3-19,6.6,8.4,6.6,19S166.4,483.7,162.8,483.7Z"/><path d="M984.9,683.5c1.8-10.8,3.2-21.7,5.4-32.5,9.1-43.7,29.2-142.5,29.2-167.9,0-42.8-14.6-77.5-32.7-77.5s-32.7,34.8-32.7,77.5h0c-7.9,1.3-16.6,2.5-26,3.7a31,31,0,0,0-27.3,30.8V774.1C948.7,748.9,979.3,717.7,984.9,683.5Zm0-218.6c0-10.4,3-19,6.3-19s6.3,8.4,6.3,19-3,19-6.3,19-6-8.6-6-19Z"/><path d="M344.2,508c-.4,50.6-.6,76.3-.9,127.3-4.9,5.2-7.3,7.8-12.2,12.7,4.8,6.3,7.2,9.8,12,16.5l-1,144c-9.5-3-14.2-4.6-23.6-7.9l.8-139.6c-10.4-2-15.6-3-25.9-5.2,0,54,0,81.1-.4,135.2-9.2-3.6-13.7-5.5-22.8-9.4V491.1h59.9C335.8,497.9,338.5,501.1,344.2,508Zm-50.7,10.5V627.7c10.3,1.8,15.5,2.7,25.9,4.4l.6-112.7Z"/><path d="M433.7,831.7c-9.1-1.7-13.6-2.6-22.7-4.6-2.3-42-3.5-63.3-5.9-104.7-6.8-1.1-10.2-1.6-17-2.8-3.1,40.3-4.7,60.3-7.8,100.1-9.4-2.5-14.1-3.8-23.5-6.3q12.6-161.1,24.5-322.3h32.2Q423.7,661.2,433.7,831.7ZM390.5,688.9l12.7,1.8c-2.2-38.7-3.4-58-5.6-96.3C394.7,632.3,393.3,651.3,390.5,688.9Z"/><path d="M520.4,509.9v81.5c-9.7,0-14.6-.3-24.2-.6V523.3H470.9q-.75,141.45-1.6,283.1c10.3,1.3,15.5,2,25.9,2.9V743.2c9.7.8,14.6,1.1,24.4,1.6v80c-5.8,7-8.7,10.5-14.4,17.3-18.4-1.7-27.5-2.8-45.8-5.6L445.2,816l2-306.3c5.7-7.2,8.5-10.8,14.2-18h44.9Z"/><path d="M605.2,523.5H566.3V650.7H598v32.2H566.3V812.6c15.8,0,23.8,0,39.6-.4v32.2c-15.9.6-23.8.7-39.7.5-9.7,0-14.5,0-24.2-.7q0-176.4.7-352.9h62.5Z"/><path d="M689.9,522.7l-38.9.4c0,50.6,0,75.6.6,125.9,12.7-.6,19-.9,31.6-1.7V679c-12.7,1-19,1.5-31.6,2.2,0,51.3,0,77,.6,128.4,15.8-1.5,23.7-2.3,39.4-4.5v31.6c-15.7,2.4-23.6,3.4-39.4,4.9-9.6,1-14.5,1.4-24.1,2q-.6-175.8-1.1-351.8h63Z"/><path d="M786.3,508.3l1,129.9c-4.9,6.7-7.3,10.1-12.1,16.9,4.9,5.3,7.4,7.9,12.3,13,.5,58.8.6,88.2,1.1,147-9.6,2.7-14.3,4-23.9,6.3-.5-59.6-.7-89.4-1.1-148.9-10.5,1.5-15.8,2.2-26.3,3.4.4,60.6.7,91,1.1,151.9-9.6,2-14.3,3-23.9,4.8q-1.2-170.55-2.3-341.1h60C777.8,498.2,780.6,501.6,786.3,508.3Zm-50.2,13.6c.4,49,.5,73.5.9,122.5,10.6-1.1,15.8-1.7,26.3-2.8l-1-120.2Z"/><path d="M868,490.3c5.5,6.3,8.2,9.3,13.7,15.3v66.5c-9.4,1.1-14,1.6-23.4,2.7v-57l-25.3.8c0,31.6,0,47,.4,78.3,19.7,29.7,29.5,43.7,48.7,68.8V766.1c-5.3,8.2-7.8,12.7-13.2,20.8-17.5,7.2-26.3,10.5-44.3,16.6-5.6-4.7-8.4-7.1-13.9-12.1,0-29,0-43.6-.5-72.7,9.6-2.2,14.3-3.3,23.7-5.7v59c10-3.2,14.9-4.9,24.9-8.5V677.8c-19.6-26.6-29.4-41.3-49.4-72.2l-.6-98.8c5.6-6.8,8.4-10.1,14-16.7Z"/><path d="M955.7,779.6a376.12,376.12,0,0,1-107.6,55.8,807.09,807.09,0,0,1-199.5,38c-3.8,0-7.5.6-11.3.8l-8.2.4c-7.5.4-15.2.8-22.9,1H605c-9.5,0-19,.4-28.7.4s-19,0-28.7-.4h-1.2c-7.8,0-15.4-.6-23-1l-8.2-.4-11.5-.8a807.09,807.09,0,0,1-199.5-38,374.91,374.91,0,0,1-107.6-55.8l-3.4-.8c27,109.6,103.8,201.1,174.6,260.5a259.79,259.79,0,0,0,81.5,56.3l1,.4,4.5,2.4,1.9.8c18.5,5.8,69.1,8.7,119.5,8.6s100.9-2.8,119.4-8.6l1.9-.8,4.4-2.4,1-.4a260.94,260.94,0,0,0,81.5-56.3C855.2,979.9,932.1,888.4,959,778.8ZM674,1012.7a139.41,139.41,0,0,1-38.5,41.7c-1,.7-1.9,1.6-2.8,2.3-8.3,4.4-32.5,6.7-56.6,6.7s-48.4-2.2-57-6.7c-.9-.7-1.8-1.6-2.8-2.3a137.16,137.16,0,0,1-38.2-41.7,441.14,441.14,0,0,1-66.6-128.2,11.07,11.07,0,0,1,7.2-14,10.56,10.56,0,0,1,5-.4c25.7,4,52.5,7.1,80.3,9l11.2.8,8.2.4,6.3.3c5.4,0,10.8.5,16.3.6h1.2c9.5,0,19,.4,28.7.5s19,0,28.7-.5h1.2c5.4,0,10.7-.4,16-.6l6.9-.3,8.2-.4c3.7,0,7.5-.6,11.3-.8,27.7-1.9,54.6-5,80.2-9a11.18,11.18,0,0,1,12.7,9.3,11,11,0,0,1-.4,5.1A446.44,446.44,0,0,1,674,1012.7Z"/><path d="M585.5,933.5v57a9.55,9.55,0,0,1-19,0v-57a9.55,9.55,0,0,1,19,0Z"/><path d="M623.5,932v47.5a9.69,9.69,0,0,1-19,0V932a9.63,9.63,0,0,1,11.4-7.6A9.36,9.36,0,0,1,623.5,932Z"/><path d="M547.4,932v47.5a9.69,9.69,0,0,1-19,0V932a9.69,9.69,0,0,1,19,0Z"/></g></g></g></g></g></g></svg>