<?xml version="1.0" standalone="no"?>
<!DOCTYPE svg PUBLIC "-//W3C//DTD SVG 20010904//EN"
 "http://www.w3.org/TR/2001/REC-SVG-20010904/DTD/svg10.dtd">
<svg version="1.0" xmlns="http://www.w3.org/2000/svg"
 width="1096.000000pt" height="1096.000000pt" viewBox="0 0 1096.000000 1096.000000"
 preserveAspectRatio="xMidYMid meet">
<metadata>
Created by potrace 1.11, written by Peter Selinger 2001-2013
</metadata>
<g transform="translate(0.000000,1096.000000) scale(0.100000,-0.100000)"
fill="#000000" stroke="none">
<path d="M10185 10944 c-49 -7 -227 -31 -395 -54 -168 -22 -415 -56 -550 -75
-135 -19 -429 -59 -655 -90 -225 -30 -588 -80 -805 -110 -764 -105 -1140 -157
-1640 -225 -967 -132 -1328 -181 -1795 -245 -258 -36 -486 -67 -505 -70 -19
-3 -316 -43 -660 -90 -344 -47 -888 -122 -1210 -166 -322 -44 -733 -100 -915
-125 -181 -25 -345 -47 -362 -50 l-33 -6 0 -4820 0 -4820 27 6 c16 3 231 33
478 66 248 33 560 76 695 95 135 19 427 59 650 89 223 30 536 73 695 95 160
22 605 83 990 136 385 53 831 114 990 136 160 22 472 65 695 95 223 30 565 77
760 104 361 50 802 111 1645 225 437 60 714 98 1640 225 199 28 364 50 368 50
4 0 7 2169 7 4820 0 3850 -3 4820 -12 4819 -7 -1 -53 -7 -103 -15z m-7155
-3464 l0 -559 64 45 c78 54 192 107 295 137 65 19 100 22 246 22 144 0 182 -4
251 -23 122 -33 246 -88 348 -155 111 -73 282 -241 354 -349 197 -294 284
-647 254 -1026 -35 -430 -169 -751 -416 -998 -179 -180 -364 -279 -595 -319
-260 -46 -475 20 -738 226 l-63 49 0 -125 0 -125 -320 0 -320 0 0 1878 c0
1033 2 1881 4 1883 2 2 146 3 320 1 l316 -3 0 -559z m5480 -1320 l0 -1880
-289 0 c-267 0 -290 1 -295 18 -2 9 -12 55 -22 102 -9 47 -19 87 -20 89 -2 2
-23 -12 -46 -31 -303 -248 -695 -283 -1062 -95 -448 229 -725 721 -726 1288
-1 687 339 1246 864 1425 311 106 665 54 890 -132 l66 -54 0 575 0 575 320 0
320 0 0 -1880z m-2945 -1224 c65 -31 127 -96 162 -171 25 -54 28 -71 28 -165
0 -92 -3 -112 -26 -161 -124 -265 -447 -255 -548 16 -42 112 -37 225 14 328
77 153 234 218 370 153z m3319 -1373 c-14 -32 -73 -165 -131 -295 l-105 -238
-44 0 c-24 0 -44 2 -44 5 0 5 248 564 256 577 3 4 25 8 49 8 l45 0 -26 -57z
m-6894 -41 c0 -58 0 -58 -133 -136 -55 -32 -95 -62 -90 -66 4 -5 55 -37 113
-72 l105 -64 3 -57 c2 -31 0 -57 -4 -57 -4 0 -87 48 -186 106 l-179 107 3 46
3 46 170 97 c94 54 176 98 183 98 8 0 12 -16 12 -48z m7147 -49 l173 -98 0
-47 0 -47 -172 -102 c-95 -56 -176 -104 -180 -106 -5 -2 -8 22 -8 55 l0 59
115 68 c101 59 113 69 98 80 -10 7 -62 38 -115 69 l-98 57 0 55 c0 30 3 54 7
54 3 0 84 -44 180 -97z m-5954 42 c65 -13 114 -90 124 -190 l6 -65 -147 0
c-99 0 -146 -4 -146 -11 0 -6 15 -26 34 -45 41 -41 86 -45 155 -14 24 11 45
19 46 18 12 -19 25 -69 20 -78 -25 -41 -174 -65 -242 -39 -101 38 -147 165
-108 296 19 63 76 119 132 128 21 4 43 8 48 10 10 3 28 1 78 -10z m1560 -13
c49 -20 83 -76 96 -162 6 -36 11 -68 11 -72 0 -5 -65 -8 -145 -8 -150 0 -161
-3 -132 -40 41 -52 106 -64 172 -30 22 11 41 20 43 20 8 0 32 -72 26 -81 -16
-26 -91 -49 -160 -49 -61 0 -76 4 -117 29 -65 42 -87 89 -87 188 0 54 6 90 19
119 44 97 161 134 274 86z m1788 1 c35 -19 64 -43 84 -71 26 -38 30 -54 33
-120 3 -66 0 -84 -20 -122 -47 -88 -159 -136 -253 -110 -193 54 -223 330 -46
422 71 37 129 37 202 1z m1227 0 c55 -26 84 -83 98 -190 l7 -53 -147 0 c-160
0 -168 -4 -122 -53 40 -43 102 -47 170 -12 15 8 30 15 33 15 9 0 33 -72 27
-81 -15 -25 -91 -49 -153 -49 -82 0 -139 26 -177 82 -49 71 -45 214 8 291 48
68 166 91 256 50z m-2070 -12 c44 -31 74 -93 80 -168 l5 -63 -147 0 c-89 0
-146 -4 -146 -10 0 -5 12 -24 28 -40 37 -43 92 -50 157 -21 26 12 49 20 50 19
13 -20 25 -69 20 -78 -16 -25 -90 -50 -153 -50 -105 0 -176 52 -202 149 -19
71 4 186 48 235 53 59 194 74 260 27z m-3249 -91 c19 -61 38 -107 41 -103 4 5
13 31 19 58 7 28 19 74 27 103 l16 53 46 -3 47 -3 30 -100 c17 -55 33 -107 36
-115 3 -8 23 38 45 103 l38 117 48 0 c26 0 48 -2 48 -3 0 -2 -31 -98 -70 -213
-38 -115 -70 -210 -70 -212 0 -2 -17 -2 -37 0 l-36 3 -42 130 -41 130 -39
-132 -38 -133 -38 0 c-36 0 -38 2 -53 48 -70 220 -116 367 -116 374 0 4 24 8
53 8 l52 0 34 -110z m1217 91 c55 -33 69 -127 27 -173 -15 -17 -15 -19 1 -37
27 -29 32 -97 12 -136 -30 -55 -59 -65 -195 -65 l-121 0 0 215 0 215 123 0
c103 0 127 -3 153 -19z m675 -16 c52 -37 81 -91 87 -160 5 -65 -11 -116 -51
-162 -51 -58 -95 -73 -224 -73 l-113 0 0 216 0 216 129 -4 c125 -3 131 -4 172
-33z m729 -102 c30 -73 57 -133 60 -133 3 0 30 61 60 135 l54 135 53 0 c29 0
53 -1 53 -3 0 -2 -36 -91 -81 -198 -44 -106 -83 -202 -86 -211 -4 -14 -16 -18
-52 -18 l-46 0 -59 138 c-32 75 -74 172 -92 215 l-34 78 58 -3 57 -3 55 -132z
m870 -28 l0 -165 120 0 120 0 0 -50 0 -50 -170 0 -170 0 0 215 0 215 50 0 50
0 0 -165z m1045 145 c47 -29 68 -80 63 -151 -4 -51 -9 -64 -38 -94 -40 -41
-86 -57 -146 -48 l-44 6 0 -62 0 -61 -55 0 -55 0 0 215 0 215 121 0 c105 0
126 -3 154 -20z m382 0 c44 -26 63 -68 63 -137 0 -75 -25 -118 -85 -144 -35
-15 -56 -18 -95 -13 l-50 7 0 -62 0 -61 -50 0 -50 0 0 215 0 215 118 0 c98 0
122 -3 149 -20z m853 5 c83 -43 78 -180 -9 -231 l-30 -17 61 -78 c33 -43 57
-83 53 -89 -3 -5 -26 -10 -51 -10 -50 0 -57 5 -128 103 -30 40 -57 67 -68 67
-16 0 -18 -10 -18 -80 l0 -80 -50 0 -50 0 0 215 0 215 130 0 c98 0 139 -4 160
-15z"/>
<path d="M3443 6432 c-39 -10 -110 -37 -158 -60 -69 -34 -104 -59 -171 -125
l-84 -83 0 -475 0 -475 57 -59 c98 -101 248 -182 381 -206 85 -16 235 -7 307
19 228 83 382 309 416 613 34 304 -84 620 -284 763 -135 96 -304 128 -464 88z"/>
<path d="M7183 6436 c-175 -43 -329 -187 -409 -384 -107 -267 -89 -594 48
-827 118 -201 334 -316 540 -286 168 23 317 98 436 217 l72 74 0 468 0 469
-60 60 c-169 172 -427 257 -627 209z"/>
<path d="M3090 3423 c-23 -9 -60 -45 -60 -60 0 -10 21 -13 85 -13 47 0 85 4
85 9 0 45 -62 81 -110 64z"/>
<path d="M4615 3418 c-25 -13 -45 -38 -45 -55 0 -10 22 -13 85 -13 47 0 85 4
85 9 0 23 -15 43 -41 56 -33 18 -57 18 -84 3z"/>
<path d="M6404 3419 c-66 -18 -108 -107 -80 -172 19 -45 48 -68 94 -74 78 -10
132 43 132 131 0 78 -72 134 -146 115z"/>
<path d="M7619 3415 c-14 -7 -30 -25 -37 -39 l-12 -26 90 0 c102 0 112 10 59
54 -34 29 -61 32 -100 11z"/>
<path d="M5550 3423 c-23 -9 -60 -45 -60 -60 0 -10 21 -13 85 -13 47 0 85 4
85 9 0 45 -62 81 -110 64z"/>
<path d="M3480 3380 l0 -40 53 0 c71 0 98 28 61 64 -10 10 -33 16 -65 16 l-49
0 0 -40z"/>
<path d="M3482 3213 c2 -31 7 -39 27 -41 43 -6 90 8 96 29 11 33 -12 49 -72
49 l-54 0 3 -37z"/>
<path d="M4140 3301 l0 -121 45 0 c26 0 59 7 75 15 58 30 79 119 39 169 -27
34 -44 42 -106 51 l-53 7 0 -121z"/>
<path d="M6810 3354 l0 -55 52 3 c45 3 55 7 67 29 13 24 13 29 -2 53 -15 22
-25 26 -67 26 l-50 0 0 -56z"/>
<path d="M7190 3355 l0 -55 48 0 c53 0 82 20 82 58 0 35 -27 52 -81 52 l-49 0
0 -55z"/>
<path d="M8020 3380 l0 -40 59 0 c41 0 65 5 75 16 39 38 10 64 -71 64 l-63 0
0 -40z"/>
</g>
</svg>
